<svg width="144" height="20" viewBox="0 0 144 20" fill="none" xmlns="http://www.w3.org/2000/svg">
<path d="M0.764205 15V0.454545H3.83949V6.45597H10.0824V0.454545H13.1506V15H10.0824V8.99148H3.83949V15H0.764205ZM18.7401 15.206C18.044 15.206 17.4238 15.0852 16.8793 14.8438C16.3348 14.5975 15.9039 14.2353 15.5866 13.7571C15.2741 13.2741 15.1179 12.6728 15.1179 11.9531C15.1179 11.3471 15.2292 10.8381 15.4517 10.4261C15.6742 10.0142 15.9773 9.68277 16.3608 9.43182C16.7443 9.18087 17.1799 8.99148 17.6676 8.86364C18.16 8.7358 18.6761 8.64583 19.2159 8.59375C19.8504 8.52746 20.3617 8.46591 20.75 8.40909C21.1383 8.34754 21.42 8.25758 21.5952 8.1392C21.7704 8.02083 21.858 7.84564 21.858 7.61364V7.57102C21.858 7.12121 21.7159 6.7732 21.4318 6.52699C21.1525 6.28078 20.7547 6.15767 20.2386 6.15767C19.6941 6.15767 19.2609 6.27841 18.9389 6.51989C18.617 6.75663 18.4039 7.05492 18.2997 7.41477L15.5014 7.1875C15.6435 6.52462 15.9228 5.9517 16.3395 5.46875C16.7562 4.98106 17.2936 4.60701 17.9517 4.34659C18.6146 4.08144 19.3816 3.94886 20.2528 3.94886C20.8589 3.94886 21.4389 4.01989 21.9929 4.16193C22.5516 4.30398 23.0464 4.52415 23.4773 4.82244C23.9129 5.12074 24.2562 5.50426 24.5071 5.97301C24.758 6.43703 24.8835 6.99337 24.8835 7.64205V15H22.0142V13.4872H21.929C21.7538 13.8281 21.5194 14.1288 21.2259 14.3892C20.9323 14.6449 20.5795 14.8461 20.1676 14.9929C19.7557 15.1349 19.2798 15.206 18.7401 15.206ZM19.6065 13.1179C20.0516 13.1179 20.4446 13.0303 20.7855 12.8551C21.1264 12.6752 21.3939 12.4337 21.5881 12.1307C21.7822 11.8277 21.8793 11.4844 21.8793 11.1009V9.94318C21.7846 10.0047 21.6544 10.0616 21.4886 10.1136C21.3277 10.161 21.1454 10.206 20.9418 10.2486C20.7382 10.2865 20.5346 10.322 20.331 10.3551C20.1274 10.3835 19.9427 10.4096 19.777 10.4332C19.4219 10.4853 19.1117 10.5682 18.8466 10.6818C18.5814 10.7955 18.3755 10.9493 18.2287 11.1435C18.0819 11.3329 18.0085 11.5696 18.0085 11.8537C18.0085 12.2656 18.1577 12.5805 18.456 12.7983C18.759 13.0114 19.1425 13.1179 19.6065 13.1179ZM36.6982 4.09091V15H33.8288V4.09091H36.6982ZM35.299 8.87784V11.2642C35.067 11.3684 34.7782 11.4678 34.4325 11.5625C34.0869 11.6525 33.7247 11.7259 33.3459 11.7827C32.9671 11.8395 32.612 11.8679 32.2805 11.8679C30.7133 11.8679 29.4799 11.5459 28.5803 10.902C27.6806 10.2533 27.2308 9.21875 27.2308 7.7983V4.0767H30.0859V7.7983C30.0859 8.2197 30.157 8.5535 30.299 8.79972C30.4458 9.04593 30.6778 9.22348 30.995 9.33239C31.317 9.43655 31.7455 9.48864 32.2805 9.48864C32.7777 9.48864 33.2654 9.43655 33.7436 9.33239C34.2218 9.22822 34.7403 9.0767 35.299 8.87784ZM42.158 15.206C41.462 15.206 40.8417 15.0852 40.2972 14.8438C39.7527 14.5975 39.3219 14.2353 39.0046 13.7571C38.6921 13.2741 38.5359 12.6728 38.5359 11.9531C38.5359 11.3471 38.6471 10.8381 38.8697 10.4261C39.0922 10.0142 39.3952 9.68277 39.7788 9.43182C40.1623 9.18087 40.5979 8.99148 41.0856 8.86364C41.578 8.7358 42.0941 8.64583 42.6339 8.59375C43.2683 8.52746 43.7797 8.46591 44.168 8.40909C44.5562 8.34754 44.838 8.25758 45.0131 8.1392C45.1883 8.02083 45.2759 7.84564 45.2759 7.61364V7.57102C45.2759 7.12121 45.1339 6.7732 44.8498 6.52699C44.5704 6.28078 44.1727 6.15767 43.6566 6.15767C43.1121 6.15767 42.6789 6.27841 42.3569 6.51989C42.0349 6.75663 41.8219 7.05492 41.7177 7.41477L38.9194 7.1875C39.0614 6.52462 39.3408 5.9517 39.7575 5.46875C40.1741 4.98106 40.7115 4.60701 41.3697 4.34659C42.0326 4.08144 42.7996 3.94886 43.6708 3.94886C44.2769 3.94886 44.8569 4.01989 45.4109 4.16193C45.9696 4.30398 46.4644 4.52415 46.8952 4.82244C47.3308 5.12074 47.6741 5.50426 47.9251 5.97301C48.176 6.43703 48.3015 6.99337 48.3015 7.64205V15H45.4322V13.4872H45.3469C45.1718 13.8281 44.9374 14.1288 44.6438 14.3892C44.3503 14.6449 43.9975 14.8461 43.5856 14.9929C43.1737 15.1349 42.6978 15.206 42.158 15.206ZM43.0245 13.1179C43.4696 13.1179 43.8626 13.0303 44.2035 12.8551C44.5444 12.6752 44.8119 12.4337 45.006 12.1307C45.2002 11.8277 45.2972 11.4844 45.2972 11.1009V9.94318C45.2025 10.0047 45.0723 10.0616 44.9066 10.1136C44.7456 10.161 44.5633 10.206 44.3597 10.2486C44.1561 10.2865 43.9525 10.322 43.7489 10.3551C43.5453 10.3835 43.3607 10.4096 43.195 10.4332C42.8398 10.4853 42.5297 10.5682 42.2646 10.6818C41.9994 10.7955 41.7934 10.9493 41.6467 11.1435C41.4999 11.3329 41.4265 11.5696 41.4265 11.8537C41.4265 12.2656 41.5756 12.5805 41.8739 12.7983C42.177 13.0114 42.5605 13.1179 43.0245 13.1179ZM49.5533 6.47017V4.09091H59.4396V6.47017H55.924V15H53.0405V6.47017H49.5533ZM63.1701 7.44318H66.43C67.8742 7.44318 69.0011 7.78883 69.8107 8.48011C70.6204 9.16667 71.0252 10.0852 71.0252 11.2358C71.0252 11.9839 70.8429 12.642 70.4783 13.2102C70.1138 13.7737 69.5882 14.214 68.9016 14.5312C68.2151 14.8438 67.3912 15 66.43 15H61.2738V4.09091H64.1644V12.6207H66.43C66.9367 12.6207 67.3533 12.4929 67.68 12.2372C68.0067 11.9815 68.1725 11.6548 68.1772 11.2571C68.1725 10.8357 68.0067 10.4924 67.68 10.2273C67.3533 9.95739 66.9367 9.82244 66.43 9.82244H63.1701V7.44318ZM80.5511 11.0085L84.4787 4.09091H87.4616V15H84.5781V8.06108L80.6648 15H77.6605V4.09091H80.5511V11.0085ZM97.3587 4.09091V6.47017H92.8274V15H89.8871V4.09091H97.3587ZM99.2035 19.0909V4.09091H102.186V5.9233H102.321C102.454 5.62973 102.646 5.33144 102.897 5.02841C103.152 4.72064 103.484 4.46496 103.891 4.26136C104.303 4.05303 104.814 3.94886 105.425 3.94886C106.221 3.94886 106.954 4.1572 107.627 4.57386C108.299 4.9858 108.837 5.60843 109.239 6.44176C109.641 7.27036 109.843 8.30966 109.843 9.55966C109.843 10.7765 109.646 11.804 109.253 12.642C108.865 13.4754 108.335 14.1075 107.662 14.5384C106.995 14.9645 106.247 15.1776 105.418 15.1776C104.831 15.1776 104.331 15.0805 103.919 14.8864C103.512 14.6922 103.178 14.4484 102.918 14.1548C102.658 13.8565 102.459 13.5559 102.321 13.2528H102.229V19.0909H99.2035ZM102.165 9.54545C102.165 10.1941 102.255 10.7599 102.435 11.2429C102.615 11.7259 102.875 12.1023 103.216 12.3722C103.557 12.6373 103.971 12.7699 104.459 12.7699C104.952 12.7699 105.368 12.6349 105.709 12.3651C106.05 12.0904 106.308 11.7116 106.483 11.2287C106.663 10.741 106.753 10.1799 106.753 9.54545C106.753 8.91572 106.666 8.36174 106.49 7.88352C106.315 7.4053 106.057 7.03125 105.716 6.76136C105.375 6.49148 104.956 6.35653 104.459 6.35653C103.967 6.35653 103.55 6.48674 103.209 6.74716C102.873 7.00758 102.615 7.37689 102.435 7.85511C102.255 8.33333 102.165 8.89678 102.165 9.54545ZM113.376 19.0909C112.993 19.0909 112.633 19.0601 112.297 18.9986C111.965 18.9418 111.69 18.8684 111.473 18.7784L112.154 16.5199C112.51 16.6288 112.829 16.688 113.113 16.6974C113.402 16.7069 113.651 16.6406 113.859 16.4986C114.072 16.3565 114.245 16.1151 114.377 15.7741L114.555 15.3125L110.642 4.09091H113.824L116.082 12.1023H116.196L118.475 4.09091H121.679L117.439 16.179C117.235 16.7661 116.958 17.2775 116.608 17.7131C116.262 18.1534 115.824 18.492 115.294 18.7287C114.763 18.9702 114.124 19.0909 113.376 19.0909ZM136.606 15.7955L134.958 14.1619L139.283 9.83665H129.148V7.43608H139.283L134.958 3.1179L136.606 1.47727L143.765 8.63636L136.606 15.7955Z" fill="black"/>
</svg>
