<svg width="122" height="20" viewBox="0 0 122 20" fill="none" xmlns="http://www.w3.org/2000/svg">
<path d="M0.764205 15.5V0.954545H3.83949V6.95597H10.0824V0.954545H13.1506V15.5H10.0824V9.49148H3.83949V15.5H0.764205ZM18.7401 15.706C18.044 15.706 17.4238 15.5852 16.8793 15.3438C16.3348 15.0975 15.9039 14.7353 15.5866 14.2571C15.2741 13.7741 15.1179 13.1728 15.1179 12.4531C15.1179 11.8471 15.2292 11.3381 15.4517 10.9261C15.6742 10.5142 15.9773 10.1828 16.3608 9.93182C16.7443 9.68087 17.1799 9.49148 17.6676 9.36364C18.16 9.2358 18.6761 9.14583 19.2159 9.09375C19.8504 9.02746 20.3617 8.96591 20.75 8.90909C21.1383 8.84754 21.42 8.75758 21.5952 8.6392C21.7704 8.52083 21.858 8.34564 21.858 8.11364V8.07102C21.858 7.62121 21.7159 7.2732 21.4318 7.02699C21.1525 6.78078 20.7547 6.65767 20.2386 6.65767C19.6941 6.65767 19.2609 6.77841 18.9389 7.01989C18.617 7.25663 18.4039 7.55492 18.2997 7.91477L15.5014 7.6875C15.6435 7.02462 15.9228 6.4517 16.3395 5.96875C16.7562 5.48106 17.2936 5.10701 17.9517 4.84659C18.6146 4.58144 19.3816 4.44886 20.2528 4.44886C20.8589 4.44886 21.4389 4.51989 21.9929 4.66193C22.5516 4.80398 23.0464 5.02415 23.4773 5.32244C23.9129 5.62074 24.2562 6.00426 24.5071 6.47301C24.758 6.93703 24.8835 7.49337 24.8835 8.14205V15.5H22.0142V13.9872H21.929C21.7538 14.3281 21.5194 14.6288 21.2259 14.8892C20.9323 15.1449 20.5795 15.3461 20.1676 15.4929C19.7557 15.6349 19.2798 15.706 18.7401 15.706ZM19.6065 13.6179C20.0516 13.6179 20.4446 13.5303 20.7855 13.3551C21.1264 13.1752 21.3939 12.9337 21.5881 12.6307C21.7822 12.3277 21.8793 11.9844 21.8793 11.6009V10.4432C21.7846 10.5047 21.6544 10.5616 21.4886 10.6136C21.3277 10.661 21.1454 10.706 20.9418 10.7486C20.7382 10.7865 20.5346 10.822 20.331 10.8551C20.1274 10.8835 19.9427 10.9096 19.777 10.9332C19.4219 10.9853 19.1117 11.0682 18.8466 11.1818C18.5814 11.2955 18.3755 11.4493 18.2287 11.6435C18.0819 11.8329 18.0085 12.0696 18.0085 12.3537C18.0085 12.7656 18.1577 13.0805 18.456 13.2983C18.759 13.5114 19.1425 13.6179 19.6065 13.6179ZM36.6982 4.59091V15.5H33.8288V4.59091H36.6982ZM35.299 9.37784V11.7642C35.067 11.8684 34.7782 11.9678 34.4325 12.0625C34.0869 12.1525 33.7247 12.2259 33.3459 12.2827C32.9671 12.3395 32.612 12.3679 32.2805 12.3679C30.7133 12.3679 29.4799 12.0459 28.5803 11.402C27.6806 10.7533 27.2308 9.71875 27.2308 8.2983V4.5767H30.0859V8.2983C30.0859 8.7197 30.157 9.0535 30.299 9.29972C30.4458 9.54593 30.6778 9.72348 30.995 9.83239C31.317 9.93655 31.7455 9.98864 32.2805 9.98864C32.7777 9.98864 33.2654 9.93655 33.7436 9.83239C34.2218 9.72822 34.7403 9.5767 35.299 9.37784ZM42.158 15.706C41.462 15.706 40.8417 15.5852 40.2972 15.3438C39.7527 15.0975 39.3219 14.7353 39.0046 14.2571C38.6921 13.7741 38.5359 13.1728 38.5359 12.4531C38.5359 11.8471 38.6471 11.3381 38.8697 10.9261C39.0922 10.5142 39.3952 10.1828 39.7788 9.93182C40.1623 9.68087 40.5979 9.49148 41.0856 9.36364C41.578 9.2358 42.0941 9.14583 42.6339 9.09375C43.2683 9.02746 43.7797 8.96591 44.168 8.90909C44.5562 8.84754 44.838 8.75758 45.0131 8.6392C45.1883 8.52083 45.2759 8.34564 45.2759 8.11364V8.07102C45.2759 7.62121 45.1339 7.2732 44.8498 7.02699C44.5704 6.78078 44.1727 6.65767 43.6566 6.65767C43.1121 6.65767 42.6789 6.77841 42.3569 7.01989C42.0349 7.25663 41.8219 7.55492 41.7177 7.91477L38.9194 7.6875C39.0614 7.02462 39.3408 6.4517 39.7575 5.96875C40.1741 5.48106 40.7115 5.10701 41.3697 4.84659C42.0326 4.58144 42.7996 4.44886 43.6708 4.44886C44.2769 4.44886 44.8569 4.51989 45.4109 4.66193C45.9696 4.80398 46.4644 5.02415 46.8952 5.32244C47.3308 5.62074 47.6741 6.00426 47.9251 6.47301C48.176 6.93703 48.3015 7.49337 48.3015 8.14205V15.5H45.4322V13.9872H45.3469C45.1718 14.3281 44.9374 14.6288 44.6438 14.8892C44.3503 15.1449 43.9975 15.3461 43.5856 15.4929C43.1737 15.6349 42.6978 15.706 42.158 15.706ZM43.0245 13.6179C43.4696 13.6179 43.8626 13.5303 44.2035 13.3551C44.5444 13.1752 44.8119 12.9337 45.006 12.6307C45.2002 12.3277 45.2972 11.9844 45.2972 11.6009V10.4432C45.2025 10.5047 45.0723 10.5616 44.9066 10.6136C44.7456 10.661 44.5633 10.706 44.3597 10.7486C44.1561 10.7865 43.9525 10.822 43.7489 10.8551C43.5453 10.8835 43.3607 10.9096 43.195 10.9332C42.8398 10.9853 42.5297 11.0682 42.2646 11.1818C41.9994 11.2955 41.7934 11.4493 41.6467 11.6435C41.4999 11.8329 41.4265 12.0696 41.4265 12.3537C41.4265 12.7656 41.5756 13.0805 41.8739 13.2983C42.177 13.5114 42.5605 13.6179 43.0245 13.6179ZM49.5533 6.97017V4.59091H59.4396V6.97017H55.924V15.5H53.0405V6.97017H49.5533ZM63.1701 7.94318H66.43C67.8742 7.94318 69.0011 8.28883 69.8107 8.98011C70.6204 9.66667 71.0252 10.5852 71.0252 11.7358C71.0252 12.4839 70.8429 13.142 70.4783 13.7102C70.1138 14.2737 69.5882 14.714 68.9016 15.0312C68.2151 15.3438 67.3912 15.5 66.43 15.5H61.2738V4.59091H64.1644V13.1207H66.43C66.9367 13.1207 67.3533 12.9929 67.68 12.7372C68.0067 12.4815 68.1725 12.1548 68.1772 11.7571C68.1725 11.3357 68.0067 10.9924 67.68 10.7273C67.3533 10.4574 66.9367 10.3224 66.43 10.3224H63.1701V7.94318ZM80.5511 11.5085L84.4787 4.59091H87.4616V15.5H84.5781V8.56108L80.6648 15.5H77.6605V4.59091H80.5511V11.5085ZM97.3587 4.59091V6.97017H92.8274V15.5H89.8871V4.59091H97.3587ZM99.2035 19.5909V4.59091H102.186V6.4233H102.321C102.454 6.12973 102.646 5.83144 102.897 5.52841C103.152 5.22064 103.484 4.96496 103.891 4.76136C104.303 4.55303 104.814 4.44886 105.425 4.44886C106.221 4.44886 106.954 4.6572 107.627 5.07386C108.299 5.4858 108.837 6.10843 109.239 6.94176C109.641 7.77036 109.843 8.80966 109.843 10.0597C109.843 11.2765 109.646 12.304 109.253 13.142C108.865 13.9754 108.335 14.6075 107.662 15.0384C106.995 15.4645 106.247 15.6776 105.418 15.6776C104.831 15.6776 104.331 15.5805 103.919 15.3864C103.512 15.1922 103.178 14.9484 102.918 14.6548C102.658 14.3565 102.459 14.0559 102.321 13.7528H102.229V19.5909H99.2035ZM102.165 10.0455C102.165 10.6941 102.255 11.2599 102.435 11.7429C102.615 12.2259 102.875 12.6023 103.216 12.8722C103.557 13.1373 103.971 13.2699 104.459 13.2699C104.952 13.2699 105.368 13.1349 105.709 12.8651C106.05 12.5904 106.308 12.2116 106.483 11.7287C106.663 11.241 106.753 10.6799 106.753 10.0455C106.753 9.41572 106.666 8.86174 106.49 8.38352C106.315 7.9053 106.057 7.53125 105.716 7.26136C105.375 6.99148 104.956 6.85653 104.459 6.85653C103.967 6.85653 103.55 6.98674 103.209 7.24716C102.873 7.50758 102.615 7.87689 102.435 8.35511C102.255 8.83333 102.165 9.39678 102.165 10.0455ZM113.376 19.5909C112.993 19.5909 112.633 19.5601 112.297 19.4986C111.965 19.4418 111.69 19.3684 111.473 19.2784L112.154 17.0199C112.51 17.1288 112.829 17.188 113.113 17.1974C113.402 17.2069 113.651 17.1406 113.859 16.9986C114.072 16.8565 114.245 16.6151 114.377 16.2741L114.555 15.8125L110.642 4.59091H113.824L116.082 12.6023H116.196L118.475 4.59091H121.679L117.439 16.679C117.235 17.2661 116.958 17.7775 116.608 18.2131C116.262 18.6534 115.824 18.992 115.294 19.2287C114.763 19.4702 114.124 19.5909 113.376 19.5909Z" fill="black"/>
</svg>
