<svg width="471" height="471" viewBox="0 0 471 471" fill="none" xmlns="http://www.w3.org/2000/svg">
<rect x="0.5" y="0.5" width="156" height="156" fill="white"/>
<rect x="0.5" y="0.5" width="156" height="156" fill="white"/>
<rect x="0.5" y="0.5" width="156" height="156" fill="white"/>
<rect x="0.5" y="0.5" width="156" height="156" stroke="black"/>
<rect x="157.5" y="0.5" width="156" height="156" fill="white"/>
<rect x="157.5" y="0.5" width="156" height="156" fill="white"/>
<rect x="157.5" y="0.5" width="156" height="156" fill="white"/>
<rect x="157.5" y="0.5" width="156" height="156" stroke="black"/>
<rect x="314.5" y="0.5" width="156" height="156" fill="white"/>
<rect x="314.5" y="0.5" width="156" height="156" fill="white"/>
<rect x="314.5" y="0.5" width="156" height="156" fill="white"/>
<rect x="314.5" y="0.5" width="156" height="156" stroke="black"/>
<rect x="0.5" y="0.5" width="156" height="156" fill="white"/>
<rect x="0.5" y="0.5" width="156" height="156" fill="white"/>
<rect x="0.5" y="0.5" width="156" height="156" fill="white"/>
<rect x="0.5" y="0.5" width="156" height="156" stroke="black"/>
<rect x="157.5" y="0.5" width="156" height="156" fill="white"/>
<rect x="157.5" y="0.5" width="156" height="156" fill="white"/>
<rect x="157.5" y="0.5" width="156" height="156" fill="white"/>
<rect x="157.5" y="0.5" width="156" height="156" stroke="black"/>
<rect x="314.5" y="0.5" width="156" height="156" fill="white"/>
<rect x="314.5" y="0.5" width="156" height="156" fill="white"/>
<rect x="314.5" y="0.5" width="156" height="156" fill="white"/>
<rect x="314.5" y="0.5" width="156" height="156" stroke="black"/>
<path d="M84.7678 60.6364V97H77.0795V67.9339H76.8665L68.5391 73.1541V66.3359L77.5412 60.6364H84.7678Z" fill="black"/>
<path d="M222.947 97V91.4602L235.891 79.4751C236.992 78.4098 237.915 77.451 238.661 76.5987C239.419 75.7464 239.993 74.9119 240.384 74.0952C240.774 73.2666 240.969 72.3729 240.969 71.4141C240.969 70.3487 240.727 69.4313 240.241 68.6619C239.756 67.8807 239.093 67.2829 238.253 66.8686C237.412 66.4425 236.46 66.2294 235.394 66.2294C234.281 66.2294 233.311 66.4543 232.482 66.9041C231.654 67.3539 231.014 67.9991 230.565 68.8395C230.115 69.6799 229.89 70.6802 229.89 71.8402H222.592C222.592 69.4609 223.131 67.3954 224.208 65.6435C225.285 63.8916 226.795 62.5362 228.736 61.5774C230.677 60.6186 232.914 60.1392 235.447 60.1392C238.052 60.1392 240.318 60.6009 242.248 61.5241C244.189 62.4356 245.698 63.7022 246.776 65.3239C247.853 66.9455 248.391 68.804 248.391 70.8991C248.391 72.2723 248.119 73.6276 247.575 74.9652C247.042 76.3028 246.089 77.7884 244.716 79.4219C243.343 81.0436 241.407 82.9908 238.91 85.2635L233.601 90.4659V90.7145H248.871V97H222.947Z" fill="black"/>
<path d="M393.388 97.4972C390.737 97.4972 388.375 97.0414 386.304 96.13C384.244 95.2067 382.617 93.9401 381.421 92.3303C380.237 90.7086 379.628 88.8383 379.592 86.7195H387.334C387.381 87.6072 387.671 88.3885 388.204 89.0632C388.748 89.7261 389.47 90.241 390.37 90.608C391.27 90.9749 392.282 91.1584 393.406 91.1584C394.578 91.1584 395.614 90.9512 396.513 90.5369C397.413 90.1226 398.117 89.5485 398.626 88.8146C399.135 88.0807 399.39 87.2344 399.39 86.2756C399.39 85.3049 399.118 84.4467 398.573 83.701C398.04 82.9434 397.271 82.3516 396.265 81.9254C395.271 81.4993 394.087 81.2862 392.714 81.2862H389.322V75.6399H392.714C393.874 75.6399 394.898 75.4387 395.786 75.0362C396.685 74.6338 397.384 74.0774 397.881 73.3672C398.378 72.6451 398.626 71.8047 398.626 70.8459C398.626 69.9344 398.407 69.1354 397.969 68.4489C397.543 67.7505 396.94 67.206 396.158 66.8153C395.389 66.4247 394.489 66.2294 393.46 66.2294C392.418 66.2294 391.465 66.4188 390.601 66.7976C389.737 67.1645 389.044 67.6913 388.523 68.3778C388.003 69.0644 387.724 69.8693 387.689 70.7926H380.32C380.356 68.6974 380.954 66.8509 382.114 65.2528C383.274 63.6548 384.836 62.406 386.801 61.5064C388.778 60.5949 391.009 60.1392 393.495 60.1392C396.004 60.1392 398.2 60.5949 400.082 61.5064C401.964 62.4178 403.426 63.6489 404.468 65.1996C405.522 66.7384 406.042 68.4666 406.031 70.3842C406.042 72.4202 405.409 74.1188 404.131 75.4801C402.864 76.8414 401.213 77.7055 399.177 78.0724V78.3565C401.852 78.6998 403.888 79.629 405.285 81.1442C406.693 82.6475 407.392 84.5296 407.38 86.7905C407.392 88.862 406.794 90.7027 405.587 92.3125C404.391 93.9223 402.74 95.1889 400.633 96.1122C398.526 97.0355 396.111 97.4972 393.388 97.4972Z" fill="black"/>
<rect x="0.5" y="157.5" width="156" height="156" fill="white"/>
<rect x="0.5" y="157.5" width="156" height="156" fill="white"/>
<rect x="0.5" y="157.5" width="156" height="156" fill="white"/>
<rect x="0.5" y="157.5" width="156" height="156" stroke="black"/>
<rect x="157.5" y="157.5" width="156" height="156" fill="white"/>
<rect x="157.5" y="157.5" width="156" height="156" fill="white"/>
<rect x="157.5" y="157.5" width="156" height="156" fill="white"/>
<rect x="157.5" y="157.5" width="156" height="156" stroke="black"/>
<rect x="314.5" y="157.5" width="156" height="156" fill="white"/>
<rect x="314.5" y="157.5" width="156" height="156" fill="white"/>
<rect x="314.5" y="157.5" width="156" height="156" fill="white"/>
<rect x="314.5" y="157.5" width="156" height="156" stroke="black"/>
<rect x="0.5" y="157.5" width="156" height="156" fill="white"/>
<rect x="0.5" y="157.5" width="156" height="156" fill="white"/>
<rect x="0.5" y="157.5" width="156" height="156" fill="white"/>
<rect x="0.5" y="157.5" width="156" height="156" stroke="black"/>
<rect x="157.5" y="157.5" width="156" height="156" fill="white"/>
<rect x="157.5" y="157.5" width="156" height="156" fill="white"/>
<rect x="157.5" y="157.5" width="156" height="156" fill="white"/>
<rect x="157.5" y="157.5" width="156" height="156" stroke="black"/>
<rect x="314.5" y="157.5" width="156" height="156" fill="white"/>
<rect x="314.5" y="157.5" width="156" height="156" fill="white"/>
<rect x="314.5" y="157.5" width="156" height="156" fill="white"/>
<rect x="314.5" y="157.5" width="156" height="156" stroke="black"/>
<path d="M64.397 247.608V241.553L79.5781 217.636H84.7983V226.017H81.7088L72.1385 241.163V241.447H93.7116V247.608H64.397ZM81.8509 254V245.761L81.9929 243.08V217.636H89.2017V254H81.8509Z" fill="black"/>
<path d="M236.229 254.497C233.719 254.497 231.482 254.036 229.517 253.112C227.564 252.189 226.013 250.916 224.865 249.295C223.717 247.673 223.119 245.815 223.072 243.719H230.529C230.612 245.128 231.204 246.27 232.305 247.146C233.406 248.022 234.714 248.46 236.229 248.46C237.436 248.46 238.501 248.194 239.425 247.661C240.36 247.117 241.088 246.365 241.609 245.406C242.141 244.436 242.408 243.323 242.408 242.068C242.408 240.79 242.135 239.665 241.591 238.695C241.058 237.724 240.318 236.966 239.371 236.422C238.424 235.877 237.341 235.599 236.122 235.587C235.057 235.587 234.021 235.806 233.015 236.244C232.021 236.682 231.245 237.28 230.689 238.038L223.853 236.812L225.575 217.636H247.805V223.922H231.914L230.973 233.031H231.186C231.825 232.131 232.79 231.385 234.08 230.793C235.371 230.201 236.815 229.906 238.413 229.906C240.603 229.906 242.556 230.42 244.272 231.45C245.988 232.48 247.344 233.895 248.338 235.694C249.332 237.481 249.824 239.541 249.812 241.873C249.824 244.323 249.255 246.501 248.107 248.407C246.971 250.301 245.379 251.792 243.331 252.881C241.295 253.959 238.928 254.497 236.229 254.497Z" fill="black"/>
<path d="M393.903 254.497C392.033 254.485 390.228 254.172 388.488 253.556C386.76 252.941 385.209 251.94 383.836 250.555C382.463 249.17 381.374 247.336 380.569 245.051C379.776 242.767 379.379 239.961 379.379 236.635C379.391 233.581 379.74 230.853 380.427 228.45C381.125 226.035 382.12 223.987 383.41 222.306C384.712 220.625 386.268 219.347 388.08 218.471C389.891 217.583 391.921 217.139 394.17 217.139C396.596 217.139 398.739 217.613 400.597 218.56C402.456 219.495 403.947 220.767 405.072 222.377C406.208 223.987 406.895 225.792 407.131 227.793H399.55C399.254 226.526 398.632 225.532 397.685 224.81C396.738 224.088 395.567 223.727 394.17 223.727C391.802 223.727 390.003 224.756 388.772 226.816C387.553 228.876 386.931 231.675 386.908 235.214H387.156C387.701 234.137 388.435 233.22 389.358 232.462C390.293 231.693 391.353 231.107 392.536 230.705C393.732 230.29 394.992 230.083 396.318 230.083C398.473 230.083 400.39 230.592 402.071 231.61C403.752 232.616 405.078 234.001 406.048 235.765C407.019 237.529 407.504 239.547 407.504 241.82C407.504 244.282 406.93 246.472 405.782 248.389C404.646 250.307 403.054 251.81 401.006 252.899C398.97 253.976 396.602 254.509 393.903 254.497ZM393.868 248.46C395.052 248.46 396.111 248.176 397.046 247.608C397.981 247.04 398.715 246.27 399.248 245.3C399.781 244.329 400.047 243.24 400.047 242.033C400.047 240.825 399.781 239.742 399.248 238.783C398.727 237.825 398.005 237.061 397.082 236.493C396.158 235.925 395.105 235.641 393.921 235.641C393.033 235.641 392.211 235.806 391.453 236.138C390.707 236.469 390.05 236.931 389.482 237.523C388.926 238.115 388.488 238.801 388.168 239.582C387.849 240.352 387.689 241.174 387.689 242.05C387.689 243.222 387.955 244.294 388.488 245.264C389.032 246.235 389.766 247.01 390.69 247.59C391.625 248.17 392.684 248.46 393.868 248.46Z" fill="black"/>
<rect x="0.5" y="314.5" width="156" height="156" fill="white"/>
<rect x="0.5" y="314.5" width="156" height="156" fill="white"/>
<rect x="0.5" y="314.5" width="156" height="156" fill="white"/>
<rect x="0.5" y="314.5" width="156" height="156" stroke="black"/>
<rect x="157.5" y="314.5" width="156" height="156" fill="white"/>
<rect x="157.5" y="314.5" width="156" height="156" fill="white"/>
<rect x="157.5" y="314.5" width="156" height="156" fill="white"/>
<rect x="157.5" y="314.5" width="156" height="156" stroke="black"/>
<rect x="314.5" y="314.5" width="156" height="156" fill="white"/>
<rect x="314.5" y="314.5" width="156" height="156" fill="white"/>
<rect x="314.5" y="314.5" width="156" height="156" fill="white"/>
<rect x="314.5" y="314.5" width="156" height="156" stroke="black"/>
<rect x="0.5" y="314.5" width="156" height="156" fill="white"/>
<rect x="0.5" y="314.5" width="156" height="156" fill="white"/>
<rect x="0.5" y="314.5" width="156" height="156" fill="white"/>
<rect x="0.5" y="314.5" width="156" height="156" stroke="black"/>
<rect x="157.5" y="314.5" width="156" height="156" fill="white"/>
<rect x="157.5" y="314.5" width="156" height="156" fill="white"/>
<rect x="157.5" y="314.5" width="156" height="156" fill="white"/>
<rect x="157.5" y="314.5" width="156" height="156" stroke="black"/>
<rect x="314.5" y="314.5" width="156" height="156" fill="white"/>
<rect x="314.5" y="314.5" width="156" height="156" fill="white"/>
<rect x="314.5" y="314.5" width="156" height="156" fill="white"/>
<rect x="314.5" y="314.5" width="156" height="156" stroke="black"/>
<path d="M70.3857 411L85.4602 381.17V380.922H67.8999V374.636H93.4148V381.011L78.3224 411H70.3857Z" fill="black"/>
<path d="M236.513 411.497C233.778 411.497 231.346 411.053 229.215 410.165C227.096 409.266 225.433 408.041 224.226 406.49C223.018 404.939 222.415 403.182 222.415 401.217C222.415 399.701 222.758 398.311 223.445 397.044C224.143 395.766 225.09 394.706 226.286 393.866C227.481 393.013 228.819 392.469 230.298 392.232V391.984C228.357 391.593 226.783 390.652 225.575 389.161C224.368 387.657 223.764 385.911 223.764 383.923C223.764 382.04 224.315 380.366 225.415 378.898C226.516 377.418 228.026 376.258 229.943 375.418C231.873 374.565 234.062 374.139 236.513 374.139C238.963 374.139 241.147 374.565 243.065 375.418C244.994 376.27 246.509 377.436 247.61 378.915C248.711 380.383 249.267 382.052 249.279 383.923C249.267 385.923 248.652 387.669 247.433 389.161C246.213 390.652 244.651 391.593 242.745 391.984V392.232C244.201 392.469 245.521 393.013 246.705 393.866C247.9 394.706 248.847 395.766 249.545 397.044C250.256 398.311 250.617 399.701 250.629 401.217C250.617 403.182 250.007 404.939 248.8 406.49C247.592 408.041 245.923 409.266 243.793 410.165C241.674 411.053 239.247 411.497 236.513 411.497ZM236.513 405.851C237.732 405.851 238.797 405.632 239.709 405.194C240.62 404.744 241.33 404.129 241.839 403.347C242.36 402.554 242.621 401.643 242.621 400.613C242.621 399.559 242.354 398.63 241.822 397.825C241.289 397.009 240.567 396.369 239.656 395.908C238.744 395.434 237.696 395.197 236.513 395.197C235.341 395.197 234.293 395.434 233.37 395.908C232.447 396.369 231.719 397.009 231.186 397.825C230.665 398.63 230.405 399.559 230.405 400.613C230.405 401.643 230.659 402.554 231.168 403.347C231.677 404.129 232.393 404.744 233.317 405.194C234.24 405.632 235.305 405.851 236.513 405.851ZM236.513 389.604C237.531 389.604 238.436 389.397 239.229 388.983C240.022 388.569 240.644 387.995 241.094 387.261C241.544 386.527 241.768 385.68 241.768 384.722C241.768 383.775 241.544 382.946 241.094 382.236C240.644 381.514 240.028 380.951 239.247 380.549C238.466 380.135 237.554 379.928 236.513 379.928C235.483 379.928 234.571 380.135 233.778 380.549C232.985 380.951 232.364 381.514 231.914 382.236C231.476 382.946 231.257 383.775 231.257 384.722C231.257 385.68 231.482 386.527 231.932 387.261C232.382 387.995 233.003 388.569 233.796 388.983C234.589 389.397 235.495 389.604 236.513 389.604Z" fill="black"/>
</svg>
