<svg width="470" height="470" viewBox="0 0 470 470" fill="none" xmlns="http://www.w3.org/2000/svg">
<rect width="470" height="470" fill="white"/>
<rect x="0.5" y="0.5" width="93" height="93" fill="white" stroke="black"/>
<rect x="94.5" y="0.5" width="93" height="93" fill="white" stroke="black"/>
<rect x="188.5" y="0.5" width="93" height="93" fill="white" stroke="black"/>
<rect x="282.5" y="0.5" width="93" height="93" fill="white" stroke="black"/>
<rect x="376.5" y="0.5" width="93" height="93" fill="white" stroke="black"/>
<path d="M52.7678 28.6364V65H45.0795V35.9339H44.8665L36.5391 41.1541V34.3359L45.5412 28.6364H52.7678Z" fill="black"/>
<path d="M127.947 65V59.4602L140.891 47.4751C141.992 46.4098 142.915 45.451 143.661 44.5987C144.419 43.7464 144.993 42.9119 145.384 42.0952C145.774 41.2666 145.969 40.3729 145.969 39.4141C145.969 38.3487 145.727 37.4313 145.241 36.6619C144.756 35.8807 144.093 35.2829 143.253 34.8686C142.412 34.4425 141.46 34.2294 140.394 34.2294C139.281 34.2294 138.311 34.4543 137.482 34.9041C136.654 35.3539 136.014 35.9991 135.565 36.8395C135.115 37.6799 134.89 38.6802 134.89 39.8402H127.592C127.592 37.4609 128.131 35.3954 129.208 33.6435C130.285 31.8916 131.795 30.5362 133.736 29.5774C135.677 28.6186 137.914 28.1392 140.447 28.1392C143.052 28.1392 145.318 28.6009 147.248 29.5241C149.189 30.4356 150.698 31.7022 151.776 33.3239C152.853 34.9455 153.391 36.804 153.391 38.8991C153.391 40.2723 153.119 41.6276 152.575 42.9652C152.042 44.3028 151.089 45.7884 149.716 47.4219C148.343 49.0436 146.407 50.9908 143.91 53.2635L138.601 58.4659V58.7145H153.871V65H127.947Z" fill="black"/>
<path d="M235.388 65.4972C232.737 65.4972 230.375 65.0414 228.304 64.13C226.244 63.2067 224.617 61.9401 223.421 60.3303C222.237 58.7086 221.628 56.8383 221.592 54.7195H229.334C229.381 55.6072 229.671 56.3885 230.204 57.0632C230.748 57.7261 231.47 58.241 232.37 58.608C233.27 58.9749 234.282 59.1584 235.406 59.1584C236.578 59.1584 237.614 58.9512 238.513 58.5369C239.413 58.1226 240.117 57.5485 240.626 56.8146C241.135 56.0807 241.39 55.2344 241.39 54.2756C241.39 53.3049 241.118 52.4467 240.573 51.701C240.04 50.9434 239.271 50.3516 238.265 49.9254C237.271 49.4993 236.087 49.2862 234.714 49.2862H231.322V43.6399H234.714C235.874 43.6399 236.898 43.4387 237.786 43.0362C238.685 42.6338 239.384 42.0774 239.881 41.3672C240.378 40.6451 240.626 39.8047 240.626 38.8459C240.626 37.9344 240.407 37.1354 239.969 36.4489C239.543 35.7505 238.94 35.206 238.158 34.8153C237.389 34.4247 236.489 34.2294 235.46 34.2294C234.418 34.2294 233.465 34.4188 232.601 34.7976C231.737 35.1645 231.044 35.6913 230.523 36.3778C230.003 37.0644 229.724 37.8693 229.689 38.7926H222.32C222.356 36.6974 222.954 34.8509 224.114 33.2528C225.274 31.6548 226.836 30.406 228.801 29.5064C230.778 28.5949 233.009 28.1392 235.495 28.1392C238.004 28.1392 240.2 28.5949 242.082 29.5064C243.964 30.4178 245.426 31.6489 246.468 33.1996C247.522 34.7384 248.042 36.4666 248.031 38.3842C248.042 40.4202 247.409 42.1188 246.131 43.4801C244.864 44.8414 243.213 45.7055 241.177 46.0724V46.3565C243.852 46.6998 245.888 47.629 247.285 49.1442C248.693 50.6475 249.392 52.5296 249.38 54.7905C249.392 56.862 248.794 58.7027 247.587 60.3125C246.391 61.9223 244.74 63.1889 242.633 64.1122C240.526 65.0355 238.111 65.4972 235.388 65.4972Z" fill="black"/>
<path d="M314.397 58.608V52.5533L329.578 28.6364H334.798V37.017H331.709L322.138 52.1626V52.4467H343.712V58.608H314.397ZM331.851 65V56.7614L331.993 54.0803V28.6364H339.202V65H331.851Z" fill="black"/>
<path d="M422.229 65.4972C419.719 65.4972 417.482 65.0355 415.517 64.1122C413.564 63.1889 412.013 61.9164 410.865 60.2947C409.717 58.6731 409.119 56.8146 409.072 54.7195H416.529C416.612 56.1281 417.204 57.2704 418.305 58.1463C419.406 59.0223 420.714 59.4602 422.229 59.4602C423.436 59.4602 424.501 59.1939 425.425 58.6612C426.36 58.1167 427.088 57.3651 427.609 56.4062C428.141 55.4356 428.408 54.3229 428.408 53.0682C428.408 51.7898 428.135 50.6652 427.591 49.6946C427.058 48.724 426.318 47.9664 425.371 47.4219C424.424 46.8774 423.341 46.5992 422.122 46.5874C421.057 46.5874 420.021 46.8063 419.015 47.2443C418.021 47.6823 417.245 48.2801 416.689 49.0376L409.853 47.8125L411.575 28.6364H433.805V34.9219H417.914L416.973 44.0305H417.186C417.825 43.1309 418.79 42.3852 420.08 41.7933C421.371 41.2015 422.815 40.9055 424.413 40.9055C426.603 40.9055 428.556 41.4205 430.272 42.4503C431.988 43.4801 433.344 44.8946 434.338 46.6939C435.332 48.4813 435.824 50.541 435.812 52.8729C435.824 55.3232 435.255 57.5012 434.107 59.407C432.971 61.3009 431.379 62.7924 429.331 63.8814C427.295 64.9586 424.928 65.4972 422.229 65.4972Z" fill="black"/>
<rect x="0.5" y="94.5" width="93" height="93" fill="white" stroke="black"/>
<rect x="94.5" y="94.5" width="93" height="93" fill="white" stroke="black"/>
<rect x="188.5" y="94.5" width="93" height="93" fill="white" stroke="black"/>
<rect x="282.5" y="94.5" width="93" height="93" fill="white" stroke="black"/>
<rect x="376.5" y="94.5" width="93" height="93" fill="white" stroke="black"/>
<path d="M50.9034 159.497C49.0331 159.485 47.228 159.172 45.4879 158.556C43.7597 157.941 42.209 156.94 40.8359 155.555C39.4628 154.17 38.3738 152.336 37.5689 150.051C36.7758 147.767 36.3793 144.961 36.3793 141.635C36.3911 138.581 36.7403 135.853 37.4268 133.45C38.1252 131.035 39.1196 128.987 40.4098 127.306C41.7119 125.625 43.2685 124.347 45.0795 123.471C46.8906 122.583 48.9207 122.139 51.1697 122.139C53.5964 122.139 55.7389 122.613 57.5973 123.56C59.4557 124.495 60.9472 125.767 62.0717 127.377C63.2081 128.987 63.8946 130.792 64.1314 132.793H56.5497C56.2538 131.526 55.6323 130.532 54.6854 129.81C53.7384 129.088 52.5665 128.727 51.1697 128.727C48.8023 128.727 47.0031 129.756 45.772 131.816C44.5528 133.876 43.9313 136.675 43.9077 140.214H44.1562C44.7008 139.137 45.4347 138.22 46.358 137.462C47.2931 136.693 48.3525 136.107 49.5362 135.705C50.7318 135.29 51.9924 135.083 53.3182 135.083C55.4725 135.083 57.3902 135.592 59.071 136.61C60.7519 137.616 62.0777 139.001 63.0483 140.765C64.0189 142.529 64.5043 144.547 64.5043 146.82C64.5043 149.282 63.9302 151.472 62.782 153.389C61.6456 155.307 60.0535 156.81 58.0057 157.899C55.9697 158.976 53.6023 159.509 50.9034 159.497ZM50.8679 153.46C52.0516 153.46 53.111 153.176 54.0462 152.608C54.9813 152.04 55.7152 151.27 56.2479 150.3C56.7805 149.329 57.0469 148.24 57.0469 147.033C57.0469 145.825 56.7805 144.742 56.2479 143.783C55.727 142.825 55.005 142.061 54.0817 141.493C53.1584 140.925 52.1049 140.641 50.9212 140.641C50.0334 140.641 49.2107 140.806 48.4531 141.138C47.7074 141.469 47.0504 141.931 46.4822 142.523C45.9259 143.115 45.4879 143.801 45.1683 144.582C44.8487 145.352 44.6889 146.174 44.6889 147.05C44.6889 148.222 44.9553 149.294 45.4879 150.264C46.0324 151.235 46.7663 152.01 47.6896 152.59C48.6248 153.17 49.6842 153.46 50.8679 153.46Z" fill="black"/>
<path d="M129.386 159L144.46 129.17V128.922H126.9V122.636H152.415V129.011L137.322 159H129.386Z" fill="black"/>
<path d="M235.513 159.497C232.778 159.497 230.346 159.053 228.215 158.165C226.096 157.266 224.433 156.041 223.226 154.49C222.018 152.939 221.415 151.182 221.415 149.217C221.415 147.701 221.758 146.311 222.445 145.044C223.143 143.766 224.09 142.706 225.286 141.866C226.481 141.013 227.819 140.469 229.298 140.232V139.984C227.357 139.593 225.783 138.652 224.575 137.161C223.368 135.657 222.764 133.911 222.764 131.923C222.764 130.04 223.315 128.366 224.415 126.898C225.516 125.418 227.026 124.258 228.943 123.418C230.873 122.565 233.062 122.139 235.513 122.139C237.963 122.139 240.147 122.565 242.065 123.418C243.994 124.27 245.509 125.436 246.61 126.915C247.711 128.383 248.267 130.052 248.279 131.923C248.267 133.923 247.652 135.669 246.433 137.161C245.213 138.652 243.651 139.593 241.745 139.984V140.232C243.201 140.469 244.521 141.013 245.705 141.866C246.9 142.706 247.847 143.766 248.545 145.044C249.256 146.311 249.617 147.701 249.629 149.217C249.617 151.182 249.007 152.939 247.8 154.49C246.592 156.041 244.923 157.266 242.793 158.165C240.674 159.053 238.247 159.497 235.513 159.497ZM235.513 153.851C236.732 153.851 237.797 153.632 238.709 153.194C239.62 152.744 240.33 152.129 240.839 151.347C241.36 150.554 241.621 149.643 241.621 148.613C241.621 147.559 241.354 146.63 240.822 145.825C240.289 145.009 239.567 144.369 238.656 143.908C237.744 143.434 236.696 143.197 235.513 143.197C234.341 143.197 233.293 143.434 232.37 143.908C231.447 144.369 230.719 145.009 230.186 145.825C229.665 146.63 229.405 147.559 229.405 148.613C229.405 149.643 229.659 150.554 230.168 151.347C230.677 152.129 231.393 152.744 232.317 153.194C233.24 153.632 234.305 153.851 235.513 153.851ZM235.513 137.604C236.531 137.604 237.436 137.397 238.229 136.983C239.022 136.569 239.644 135.995 240.094 135.261C240.544 134.527 240.768 133.68 240.768 132.722C240.768 131.775 240.544 130.946 240.094 130.236C239.644 129.514 239.028 128.951 238.247 128.549C237.466 128.135 236.554 127.928 235.513 127.928C234.483 127.928 233.571 128.135 232.778 128.549C231.985 128.951 231.364 129.514 230.914 130.236C230.476 130.946 230.257 131.775 230.257 132.722C230.257 133.68 230.482 134.527 230.932 135.261C231.382 135.995 232.003 136.569 232.796 136.983C233.589 137.397 234.495 137.604 235.513 137.604Z" fill="black"/>
<path d="M328.104 122.139C329.975 122.139 331.774 122.453 333.502 123.08C335.242 123.708 336.793 124.708 338.154 126.081C339.527 127.454 340.61 129.277 341.403 131.55C342.208 133.811 342.617 136.586 342.629 139.877C342.629 142.967 342.279 145.725 341.581 148.151C340.894 150.566 339.906 152.62 338.616 154.312C337.326 156.005 335.769 157.295 333.946 158.183C332.123 159.059 330.087 159.497 327.838 159.497C325.411 159.497 323.269 159.03 321.411 158.094C319.552 157.147 318.055 155.863 316.918 154.241C315.794 152.608 315.113 150.773 314.876 148.737H322.458C322.754 150.063 323.375 151.093 324.322 151.827C325.269 152.549 326.441 152.91 327.838 152.91C330.205 152.91 332.005 151.88 333.236 149.82C334.467 147.749 335.088 144.914 335.1 141.315H334.852C334.307 142.381 333.573 143.298 332.65 144.067C331.727 144.825 330.667 145.411 329.472 145.825C328.288 146.24 327.027 146.447 325.69 146.447C323.547 146.447 321.635 145.944 319.955 144.938C318.274 143.931 316.948 142.546 315.977 140.783C315.007 139.019 314.521 137.007 314.521 134.746C314.509 132.307 315.072 130.135 316.208 128.229C317.344 126.324 318.931 124.832 320.967 123.755C323.014 122.666 325.394 122.127 328.104 122.139ZM328.158 128.176C326.962 128.176 325.897 128.46 324.962 129.028C324.038 129.597 323.304 130.36 322.76 131.319C322.227 132.278 321.967 133.349 321.979 134.533C321.979 135.728 322.239 136.805 322.76 137.764C323.293 138.711 324.015 139.469 324.926 140.037C325.849 140.593 326.903 140.871 328.087 140.871C328.974 140.871 329.797 140.706 330.555 140.374C331.312 140.043 331.969 139.587 332.526 139.007C333.094 138.415 333.538 137.735 333.857 136.965C334.177 136.196 334.337 135.379 334.337 134.515C334.325 133.367 334.053 132.313 333.52 131.354C332.987 130.396 332.253 129.626 331.318 129.046C330.383 128.466 329.33 128.176 328.158 128.176Z" fill="black"/>
<path d="M411.768 122.636V159H404.08V129.934H403.866L395.539 135.154V128.336L404.541 122.636H411.768ZM434.668 159.799C431.614 159.787 428.986 159.036 426.785 157.544C424.595 156.053 422.908 153.892 421.724 151.063C420.552 148.234 419.972 144.831 419.984 140.854C419.984 136.888 420.57 133.509 421.742 130.715C422.926 127.922 424.613 125.797 426.802 124.341C429.004 122.873 431.626 122.139 434.668 122.139C437.71 122.139 440.326 122.873 442.516 124.341C444.718 125.809 446.411 127.939 447.594 130.733C448.778 133.515 449.364 136.888 449.352 140.854C449.352 144.843 448.76 148.252 447.577 151.081C446.405 153.91 444.724 156.07 442.534 157.562C440.344 159.053 437.722 159.799 434.668 159.799ZM434.668 153.425C436.751 153.425 438.415 152.377 439.657 150.282C440.9 148.187 441.516 145.044 441.504 140.854C441.504 138.096 441.22 135.799 440.652 133.964C440.095 132.13 439.302 130.751 438.273 129.827C437.255 128.904 436.053 128.442 434.668 128.442C432.597 128.442 430.939 129.478 429.697 131.55C428.454 133.621 427.826 136.723 427.814 140.854C427.814 143.647 428.093 145.979 428.649 147.849C429.217 149.708 430.016 151.105 431.046 152.04C432.076 152.963 433.283 153.425 434.668 153.425Z" fill="black"/>
<rect x="0.5" y="188.5" width="93" height="93" fill="white" stroke="black"/>
<rect x="94.5" y="188.5" width="93" height="93" fill="white" stroke="black"/>
<rect x="188.5" y="188.5" width="93" height="93" fill="white" stroke="black"/>
<rect x="282.5" y="188.5" width="93" height="93" fill="white" stroke="black"/>
<rect x="376.5" y="188.5" width="93" height="93" fill="white" stroke="black"/>
<path d="M40.7678 216.636V253H33.0795V223.934H32.8665L24.5391 229.154V222.336L33.5412 216.636H40.7678ZM65.2306 216.636V253H57.5424V223.934H57.3294L49.002 229.154V222.336L58.0041 216.636H65.2306Z" fill="black"/>
<path d="M132.768 216.636V253H125.08V223.934H124.866L116.539 229.154V222.336L125.541 216.636H132.768ZM141.41 253V247.46L154.354 235.475C155.455 234.41 156.378 233.451 157.124 232.599C157.882 231.746 158.456 230.912 158.846 230.095C159.237 229.267 159.432 228.373 159.432 227.414C159.432 226.349 159.19 225.431 158.704 224.662C158.219 223.881 157.556 223.283 156.716 222.869C155.875 222.442 154.922 222.229 153.857 222.229C152.744 222.229 151.774 222.454 150.945 222.904C150.117 223.354 149.477 223.999 149.028 224.839C148.578 225.68 148.353 226.68 148.353 227.84H141.055C141.055 225.461 141.594 223.395 142.671 221.643C143.748 219.892 145.257 218.536 147.199 217.577C149.14 216.619 151.377 216.139 153.91 216.139C156.515 216.139 158.781 216.601 160.711 217.524C162.652 218.436 164.161 219.702 165.238 221.324C166.316 222.946 166.854 224.804 166.854 226.899C166.854 228.272 166.582 229.628 166.037 230.965C165.505 232.303 164.552 233.788 163.179 235.422C161.806 237.044 159.87 238.991 157.373 241.263L152.064 246.466V246.714H167.334V253H141.41Z" fill="black"/>
<path d="M226.768 216.636V253H219.08V223.934H218.866L210.539 229.154V222.336L219.541 216.636H226.768ZM248.851 253.497C246.2 253.497 243.838 253.041 241.767 252.13C239.707 251.207 238.08 249.94 236.884 248.33C235.7 246.709 235.091 244.838 235.055 242.719H242.797C242.844 243.607 243.134 244.388 243.667 245.063C244.211 245.726 244.933 246.241 245.833 246.608C246.733 246.975 247.745 247.158 248.869 247.158C250.041 247.158 251.077 246.951 251.976 246.537C252.876 246.123 253.58 245.549 254.089 244.815C254.598 244.081 254.853 243.234 254.853 242.276C254.853 241.305 254.581 240.447 254.036 239.701C253.503 238.943 252.734 238.352 251.728 237.925C250.733 237.499 249.55 237.286 248.177 237.286H244.785V231.64H248.177C249.337 231.64 250.361 231.439 251.248 231.036C252.148 230.634 252.846 230.077 253.344 229.367C253.841 228.645 254.089 227.805 254.089 226.846C254.089 225.934 253.87 225.135 253.432 224.449C253.006 223.75 252.403 223.206 251.621 222.815C250.852 222.425 249.952 222.229 248.922 222.229C247.881 222.229 246.928 222.419 246.064 222.798C245.2 223.165 244.507 223.691 243.986 224.378C243.465 225.064 243.187 225.869 243.152 226.793H235.783C235.819 224.697 236.416 222.851 237.577 221.253C238.737 219.655 240.299 218.406 242.264 217.506C244.241 216.595 246.472 216.139 248.958 216.139C251.467 216.139 253.663 216.595 255.545 217.506C257.427 218.418 258.889 219.649 259.931 221.2C260.984 222.738 261.505 224.467 261.493 226.384C261.505 228.42 260.872 230.119 259.594 231.48C258.327 232.841 256.676 233.705 254.64 234.072V234.357C257.315 234.7 259.351 235.629 260.748 237.144C262.156 238.647 262.855 240.53 262.843 242.79C262.855 244.862 262.257 246.703 261.05 248.312C259.854 249.922 258.203 251.189 256.096 252.112C253.989 253.036 251.574 253.497 248.851 253.497Z" fill="black"/>
<path d="M319.768 216.636V253H312.08V223.934H311.866L303.539 229.154V222.336L312.541 216.636H319.768ZM327.86 246.608V240.553L343.041 216.636H348.261V225.017H345.172L335.601 240.163V240.447H357.175V246.608H327.86ZM345.314 253V244.761L345.456 242.08V216.636H352.665V253H345.314Z" fill="black"/>
<path d="M413.768 216.636V253H406.08V223.934H405.866L397.539 229.154V222.336L406.541 216.636H413.768ZM435.692 253.497C433.182 253.497 430.945 253.036 428.98 252.112C427.027 251.189 425.476 249.916 424.328 248.295C423.18 246.673 422.582 244.815 422.535 242.719H429.992C430.075 244.128 430.667 245.27 431.768 246.146C432.868 247.022 434.176 247.46 435.692 247.46C436.899 247.46 437.964 247.194 438.888 246.661C439.823 246.117 440.551 245.365 441.072 244.406C441.604 243.436 441.871 242.323 441.871 241.068C441.871 239.79 441.598 238.665 441.054 237.695C440.521 236.724 439.781 235.966 438.834 235.422C437.887 234.877 436.804 234.599 435.585 234.587C434.52 234.587 433.484 234.806 432.478 235.244C431.483 235.682 430.708 236.28 430.152 237.038L423.316 235.812L425.038 216.636H447.268V222.922H431.377L430.436 232.031H430.649C431.288 231.131 432.253 230.385 433.543 229.793C434.833 229.201 436.278 228.906 437.876 228.906C440.065 228.906 442.019 229.42 443.735 230.45C445.451 231.48 446.807 232.895 447.801 234.694C448.795 236.481 449.287 238.541 449.275 240.873C449.287 243.323 448.718 245.501 447.57 247.407C446.434 249.301 444.842 250.792 442.794 251.881C440.758 252.959 438.39 253.497 435.692 253.497Z" fill="black"/>
<rect x="0.5" y="281.5" width="93" height="93" fill="white" stroke="black"/>
<rect x="94.5" y="281.5" width="93" height="93" fill="white" stroke="black"/>
<rect x="188.5" y="281.5" width="93" height="93" fill="white" stroke="black"/>
<rect x="282.5" y="281.5" width="93" height="93" fill="white" stroke="black"/>
<rect x="376.5" y="281.5" width="93" height="93" fill="white" stroke="black"/>
<path d="M40.7678 309.636V346H33.0795V316.934H32.8665L24.5391 322.154V315.336L33.5412 309.636H40.7678ZM63.3663 346.497C61.496 346.485 59.6909 346.172 57.9508 345.556C56.2226 344.941 54.6719 343.94 53.2988 342.555C51.9257 341.17 50.8367 339.336 50.0318 337.051C49.2387 334.767 48.8422 331.961 48.8422 328.635C48.854 325.581 49.2032 322.853 49.8897 320.45C50.5881 318.035 51.5824 315.987 52.8727 314.306C54.1748 312.625 55.7314 311.347 57.5424 310.471C59.3535 309.583 61.3836 309.139 63.6326 309.139C66.0592 309.139 68.2018 309.613 70.0602 310.56C71.9186 311.495 73.4101 312.767 74.5346 314.377C75.671 315.987 76.3575 317.792 76.5943 319.793H69.0126C68.7167 318.526 68.0952 317.532 67.1483 316.81C66.2013 316.088 65.0294 315.727 63.6326 315.727C61.2652 315.727 59.466 316.756 58.2349 318.816C57.0157 320.876 56.3942 323.675 56.3706 327.214H56.6191C57.1636 326.137 57.8975 325.22 58.8208 324.462C59.756 323.693 60.8154 323.107 61.9991 322.705C63.1947 322.29 64.4553 322.083 65.7811 322.083C67.9354 322.083 69.853 322.592 71.5339 323.61C73.2148 324.616 74.5405 326.001 75.5112 327.765C76.4818 329.529 76.9672 331.547 76.9672 333.82C76.9672 336.282 76.3931 338.472 75.2449 340.389C74.1085 342.307 72.5164 343.81 70.4686 344.899C68.4326 345.976 66.0652 346.509 63.3663 346.497ZM63.3308 340.46C64.5145 340.46 65.5739 340.176 66.5091 339.608C67.4442 339.04 68.1781 338.27 68.7108 337.3C69.2434 336.329 69.5098 335.24 69.5098 334.033C69.5098 332.825 69.2434 331.742 68.7108 330.783C68.1899 329.825 67.4679 329.061 66.5446 328.493C65.6213 327.925 64.5678 327.641 63.3841 327.641C62.4963 327.641 61.6736 327.806 60.916 328.138C60.1703 328.469 59.5133 328.931 58.9451 329.523C58.3888 330.115 57.9508 330.801 57.6312 331.582C57.3116 332.352 57.1518 333.174 57.1518 334.05C57.1518 335.222 57.4181 336.294 57.9508 337.264C58.4953 338.235 59.2292 339.01 60.1525 339.59C61.0877 340.17 62.1471 340.46 63.3308 340.46Z" fill="black"/>
<path d="M131.768 309.636V346H124.08V316.934H123.866L115.539 322.154V315.336L124.541 309.636H131.768ZM141.849 346L156.923 316.17V315.922H139.363V309.636H164.878V316.011L149.785 346H141.849Z" fill="black"/>
<path d="M225.768 309.636V346H218.08V316.934H217.866L209.539 322.154V315.336L218.541 309.636H225.768ZM247.976 346.497C245.241 346.497 242.809 346.053 240.678 345.165C238.559 344.266 236.896 343.041 235.689 341.49C234.481 339.939 233.878 338.182 233.878 336.217C233.878 334.701 234.221 333.311 234.907 332.044C235.606 330.766 236.553 329.706 237.748 328.866C238.944 328.013 240.282 327.469 241.761 327.232V326.984C239.82 326.593 238.246 325.652 237.038 324.161C235.831 322.657 235.227 320.911 235.227 318.923C235.227 317.04 235.778 315.366 236.878 313.898C237.979 312.418 239.488 311.258 241.406 310.418C243.336 309.565 245.525 309.139 247.976 309.139C250.426 309.139 252.61 309.565 254.528 310.418C256.457 311.27 257.972 312.436 259.073 313.915C260.174 315.383 260.73 317.052 260.742 318.923C260.73 320.923 260.115 322.669 258.895 324.161C257.676 325.652 256.114 326.593 254.208 326.984V327.232C255.664 327.469 256.984 328.013 258.167 328.866C259.363 329.706 260.31 330.766 261.008 332.044C261.719 333.311 262.08 334.701 262.091 336.217C262.08 338.182 261.47 339.939 260.263 341.49C259.055 343.041 257.386 344.266 255.256 345.165C253.137 346.053 250.71 346.497 247.976 346.497ZM247.976 340.851C249.195 340.851 250.26 340.632 251.172 340.194C252.083 339.744 252.793 339.129 253.302 338.347C253.823 337.554 254.084 336.643 254.084 335.613C254.084 334.559 253.817 333.63 253.285 332.825C252.752 332.009 252.03 331.369 251.118 330.908C250.207 330.434 249.159 330.197 247.976 330.197C246.804 330.197 245.756 330.434 244.833 330.908C243.91 331.369 243.182 332.009 242.649 332.825C242.128 333.63 241.868 334.559 241.868 335.613C241.868 336.643 242.122 337.554 242.631 338.347C243.14 339.129 243.856 339.744 244.78 340.194C245.703 340.632 246.768 340.851 247.976 340.851ZM247.976 324.604C248.994 324.604 249.899 324.397 250.692 323.983C251.485 323.569 252.107 322.995 252.557 322.261C253.006 321.527 253.231 320.68 253.231 319.722C253.231 318.775 253.006 317.946 252.557 317.236C252.107 316.514 251.491 315.951 250.71 315.549C249.929 315.135 249.017 314.928 247.976 314.928C246.946 314.928 246.034 315.135 245.241 315.549C244.448 315.951 243.827 316.514 243.377 317.236C242.939 317.946 242.72 318.775 242.72 319.722C242.72 320.68 242.945 321.527 243.395 322.261C243.845 322.995 244.466 323.569 245.259 323.983C246.052 324.397 246.958 324.604 247.976 324.604Z" fill="black"/>
<path d="M318.768 309.636V346H311.08V316.934H310.866L302.539 322.154V315.336L311.541 309.636H318.768ZM340.567 309.139C342.438 309.139 344.237 309.453 345.965 310.08C347.705 310.708 349.256 311.708 350.617 313.081C351.99 314.454 353.073 316.277 353.866 318.55C354.671 320.811 355.08 323.586 355.091 326.877C355.091 329.967 354.742 332.725 354.044 335.151C353.357 337.566 352.369 339.62 351.079 341.312C349.788 343.005 348.232 344.295 346.409 345.183C344.586 346.059 342.55 346.497 340.301 346.497C337.874 346.497 335.732 346.03 333.873 345.094C332.015 344.147 330.518 342.863 329.381 341.241C328.257 339.608 327.576 337.773 327.339 335.737H334.921C335.217 337.063 335.838 338.093 336.785 338.827C337.732 339.549 338.904 339.91 340.301 339.91C342.668 339.91 344.468 338.88 345.699 336.82C346.93 334.749 347.551 331.914 347.563 328.315H347.314C346.77 329.381 346.036 330.298 345.113 331.067C344.189 331.825 343.13 332.411 341.934 332.825C340.751 333.24 339.49 333.447 338.153 333.447C336.01 333.447 334.098 332.944 332.417 331.938C330.737 330.931 329.411 329.546 328.44 327.783C327.47 326.019 326.984 324.007 326.984 321.746C326.972 319.307 327.535 317.135 328.671 315.229C329.807 313.324 331.394 311.832 333.43 310.755C335.477 309.666 337.857 309.127 340.567 309.139ZM340.621 315.176C339.425 315.176 338.36 315.46 337.425 316.028C336.501 316.597 335.767 317.36 335.223 318.319C334.69 319.278 334.43 320.349 334.442 321.533C334.442 322.728 334.702 323.805 335.223 324.764C335.756 325.711 336.478 326.469 337.389 327.037C338.312 327.593 339.366 327.871 340.55 327.871C341.437 327.871 342.26 327.706 343.018 327.374C343.775 327.043 344.432 326.587 344.988 326.007C345.557 325.415 346.001 324.735 346.32 323.965C346.64 323.196 346.8 322.379 346.8 321.515C346.788 320.367 346.515 319.313 345.983 318.354C345.45 317.396 344.716 316.626 343.781 316.046C342.846 315.466 341.792 315.176 340.621 315.176Z" fill="black"/>
<path d="M396.947 346V340.46L409.891 328.475C410.992 327.41 411.915 326.451 412.661 325.599C413.419 324.746 413.993 323.912 414.384 323.095C414.774 322.267 414.969 321.373 414.969 320.414C414.969 319.349 414.727 318.431 414.241 317.662C413.756 316.881 413.093 316.283 412.253 315.869C411.412 315.442 410.46 315.229 409.394 315.229C408.281 315.229 407.311 315.454 406.482 315.904C405.654 316.354 405.014 316.999 404.565 317.839C404.115 318.68 403.89 319.68 403.89 320.84H396.592C396.592 318.461 397.131 316.395 398.208 314.643C399.285 312.892 400.795 311.536 402.736 310.577C404.677 309.619 406.914 309.139 409.447 309.139C412.052 309.139 414.318 309.601 416.248 310.524C418.189 311.436 419.698 312.702 420.776 314.324C421.853 315.946 422.391 317.804 422.391 319.899C422.391 321.272 422.119 322.628 421.575 323.965C421.042 325.303 420.089 326.788 418.716 328.422C417.343 330.044 415.407 331.991 412.91 334.263L407.601 339.466V339.714H422.871V346H396.947ZM442.699 346.799C439.645 346.787 437.018 346.036 434.816 344.544C432.626 343.053 430.939 340.892 429.756 338.063C428.584 335.234 428.004 331.831 428.015 327.854C428.015 323.888 428.601 320.509 429.773 317.715C430.957 314.922 432.644 312.797 434.834 311.341C437.035 309.873 439.657 309.139 442.699 309.139C445.742 309.139 448.358 309.873 450.547 311.341C452.749 312.809 454.442 314.939 455.626 317.733C456.809 320.515 457.395 323.888 457.383 327.854C457.383 331.843 456.791 335.252 455.608 338.081C454.436 340.91 452.755 343.07 450.565 344.562C448.375 346.053 445.753 346.799 442.699 346.799ZM442.699 340.425C444.783 340.425 446.446 339.377 447.689 337.282C448.932 335.187 449.547 332.044 449.535 327.854C449.535 325.096 449.251 322.799 448.683 320.964C448.127 319.13 447.334 317.751 446.304 316.827C445.286 315.904 444.084 315.442 442.699 315.442C440.628 315.442 438.971 316.478 437.728 318.55C436.485 320.621 435.858 323.723 435.846 327.854C435.846 330.647 436.124 332.979 436.68 334.849C437.248 336.708 438.047 338.105 439.077 339.04C440.107 339.963 441.314 340.425 442.699 340.425Z" fill="black"/>
<rect x="0.5" y="374.5" width="93" height="93" fill="white" stroke="black"/>
<rect x="94.5" y="374.5" width="93" height="93" fill="white" stroke="black"/>
<rect x="188.5" y="374.5" width="93" height="93" fill="white" stroke="black"/>
<rect x="282.5" y="374.5" width="93" height="93" fill="white" stroke="black"/>
<rect x="376.5" y="374.5" width="93" height="93" fill="white" stroke="black"/>
<path d="M24.9474 439V433.46L37.8913 421.475C38.9922 420.41 39.9155 419.451 40.6612 418.599C41.4188 417.746 41.9929 416.912 42.3835 416.095C42.7741 415.267 42.9695 414.373 42.9695 413.414C42.9695 412.349 42.7268 411.431 42.2415 410.662C41.7562 409.881 41.0933 409.283 40.2528 408.869C39.4124 408.442 38.4595 408.229 37.3942 408.229C36.2815 408.229 35.3108 408.454 34.4822 408.904C33.6536 409.354 33.0144 409.999 32.5646 410.839C32.1148 411.68 31.8899 412.68 31.8899 413.84H24.5923C24.5923 411.461 25.1309 409.395 26.2081 407.643C27.2853 405.892 28.7945 404.536 30.7358 403.577C32.6771 402.619 34.9143 402.139 37.4474 402.139C40.0516 402.139 42.3184 402.601 44.2479 403.524C46.1892 404.436 47.6984 405.702 48.7756 407.324C49.8527 408.946 50.3913 410.804 50.3913 412.899C50.3913 414.272 50.1191 415.628 49.5746 416.965C49.0419 418.303 48.089 419.788 46.7159 421.422C45.3428 423.044 43.4074 424.991 40.9098 427.263L35.6009 432.466V432.714H50.8707V439H24.9474ZM72.2619 402.636V439H64.5737V409.934H64.3606L56.0332 415.154V408.336L65.0353 402.636H72.2619Z" fill="black"/>
<path d="M115.947 439V433.46L128.891 421.475C129.992 420.41 130.915 419.451 131.661 418.599C132.419 417.746 132.993 416.912 133.384 416.095C133.774 415.267 133.969 414.373 133.969 413.414C133.969 412.349 133.727 411.431 133.241 410.662C132.756 409.881 132.093 409.283 131.253 408.869C130.412 408.442 129.46 408.229 128.394 408.229C127.281 408.229 126.311 408.454 125.482 408.904C124.654 409.354 124.014 409.999 123.565 410.839C123.115 411.68 122.89 412.68 122.89 413.84H115.592C115.592 411.461 116.131 409.395 117.208 407.643C118.285 405.892 119.795 404.536 121.736 403.577C123.677 402.619 125.914 402.139 128.447 402.139C131.052 402.139 133.318 402.601 135.248 403.524C137.189 404.436 138.698 405.702 139.776 407.324C140.853 408.946 141.391 410.804 141.391 412.899C141.391 414.272 141.119 415.628 140.575 416.965C140.042 418.303 139.089 419.788 137.716 421.422C136.343 423.044 134.407 424.991 131.91 427.263L126.601 432.466V432.714H141.871V439H115.947ZM147.442 439V433.46L160.385 421.475C161.486 420.41 162.41 419.451 163.155 418.599C163.913 417.746 164.487 416.912 164.878 416.095C165.268 415.267 165.464 414.373 165.464 413.414C165.464 412.349 165.221 411.431 164.736 410.662C164.25 409.881 163.587 409.283 162.747 408.869C161.907 408.442 160.954 408.229 159.888 408.229C158.776 408.229 157.805 408.454 156.976 408.904C156.148 409.354 155.509 409.999 155.059 410.839C154.609 411.68 154.384 412.68 154.384 413.84H147.086C147.086 411.461 147.625 409.395 148.702 407.643C149.779 405.892 151.289 404.536 153.23 403.577C155.171 402.619 157.408 402.139 159.942 402.139C162.546 402.139 164.813 402.601 166.742 403.524C168.683 404.436 170.193 405.702 171.27 407.324C172.347 408.946 172.885 410.804 172.885 412.899C172.885 414.272 172.613 415.628 172.069 416.965C171.536 418.303 170.583 419.788 169.21 421.422C167.837 423.044 165.902 424.991 163.404 427.263L158.095 432.466V432.714H173.365V439H147.442Z" fill="black"/>
<path d="M209.947 439V433.46L222.891 421.475C223.992 420.41 224.915 419.451 225.661 418.599C226.419 417.746 226.993 416.912 227.384 416.095C227.774 415.267 227.969 414.373 227.969 413.414C227.969 412.349 227.727 411.431 227.241 410.662C226.756 409.881 226.093 409.283 225.253 408.869C224.412 408.442 223.46 408.229 222.394 408.229C221.281 408.229 220.311 408.454 219.482 408.904C218.654 409.354 218.014 409.999 217.565 410.839C217.115 411.68 216.89 412.68 216.89 413.84H209.592C209.592 411.461 210.131 409.395 211.208 407.643C212.285 405.892 213.795 404.536 215.736 403.577C217.677 402.619 219.914 402.139 222.447 402.139C225.052 402.139 227.318 402.601 229.248 403.524C231.189 404.436 232.698 405.702 233.776 407.324C234.853 408.946 235.391 410.804 235.391 412.899C235.391 414.272 235.119 415.628 234.575 416.965C234.042 418.303 233.089 419.788 231.716 421.422C230.343 423.044 228.407 424.991 225.91 427.263L220.601 432.466V432.714H235.871V439H209.947ZM254.883 439.497C252.231 439.497 249.87 439.041 247.798 438.13C245.738 437.207 244.111 435.94 242.915 434.33C241.732 432.709 241.122 430.838 241.086 428.719H248.828C248.875 429.607 249.165 430.388 249.698 431.063C250.242 431.726 250.965 432.241 251.864 432.608C252.764 432.975 253.776 433.158 254.9 433.158C256.072 433.158 257.108 432.951 258.008 432.537C258.907 432.123 259.612 431.549 260.121 430.815C260.63 430.081 260.884 429.234 260.884 428.276C260.884 427.305 260.612 426.447 260.067 425.701C259.535 424.943 258.765 424.352 257.759 423.925C256.765 423.499 255.581 423.286 254.208 423.286H250.817V417.64H254.208C255.368 417.64 256.392 417.439 257.28 417.036C258.179 416.634 258.878 416.077 259.375 415.367C259.872 414.645 260.121 413.805 260.121 412.846C260.121 411.934 259.902 411.135 259.464 410.449C259.037 409.75 258.434 409.206 257.653 408.815C256.883 408.425 255.983 408.229 254.954 408.229C253.912 408.229 252.959 408.419 252.095 408.798C251.231 409.165 250.538 409.691 250.018 410.378C249.497 411.064 249.219 411.869 249.183 412.793H241.814C241.85 410.697 242.448 408.851 243.608 407.253C244.768 405.655 246.33 404.406 248.295 403.506C250.272 402.595 252.503 402.139 254.989 402.139C257.499 402.139 259.694 402.595 261.577 403.506C263.459 404.418 264.921 405.649 265.962 407.2C267.016 408.738 267.537 410.467 267.525 412.384C267.537 414.42 266.903 416.119 265.625 417.48C264.358 418.841 262.707 419.705 260.671 420.072V420.357C263.346 420.7 265.382 421.629 266.779 423.144C268.188 424.647 268.886 426.53 268.874 428.79C268.886 430.862 268.288 432.703 267.081 434.312C265.885 435.922 264.234 437.189 262.127 438.112C260.02 439.036 257.605 439.497 254.883 439.497Z" fill="black"/>
<path d="M302.947 439V433.46L315.891 421.475C316.992 420.41 317.915 419.451 318.661 418.599C319.419 417.746 319.993 416.912 320.384 416.095C320.774 415.267 320.969 414.373 320.969 413.414C320.969 412.349 320.727 411.431 320.241 410.662C319.756 409.881 319.093 409.283 318.253 408.869C317.412 408.442 316.46 408.229 315.394 408.229C314.281 408.229 313.311 408.454 312.482 408.904C311.654 409.354 311.014 409.999 310.565 410.839C310.115 411.68 309.89 412.68 309.89 413.84H302.592C302.592 411.461 303.131 409.395 304.208 407.643C305.285 405.892 306.795 404.536 308.736 403.577C310.677 402.619 312.914 402.139 315.447 402.139C318.052 402.139 320.318 402.601 322.248 403.524C324.189 404.436 325.698 405.702 326.776 407.324C327.853 408.946 328.391 410.804 328.391 412.899C328.391 414.272 328.119 415.628 327.575 416.965C327.042 418.303 326.089 419.788 324.716 421.422C323.343 423.044 321.407 424.991 318.91 427.263L313.601 432.466V432.714H328.871V439H302.947ZM333.11 432.608V426.553L348.291 402.636H353.511V411.017H350.422L340.851 426.163V426.447H362.425V432.608H333.11ZM350.564 439V430.761L350.706 428.08V402.636H357.915V439H350.564Z" fill="black"/>
</svg>
