<svg width="348" height="348" viewBox="0 0 348 348" fill="none" xmlns="http://www.w3.org/2000/svg">
<g clip-path="url(#clip0_103_638)">
<path d="M347.565 0.434998H0.435059V347.565H347.565V0.434998Z" fill="white"/>
<path d="M347.565 0.434998H0.435059V347.565H347.565V0.434998Z" stroke="black"/>
<path d="M86.5651 0.434998H0.435059V86.565H86.5651V0.434998Z" fill="white" stroke="black"/>
<path d="M173.565 0.434998H87.4351V86.565H173.565V0.434998Z" fill="white" stroke="black"/>
<path d="M260.565 0.434998H174.435V86.565H260.565V0.434998Z" fill="white" stroke="black"/>
<path d="M347.565 0.434998H261.435V86.565H347.565V0.434998Z" fill="white" stroke="black"/>
<path d="M86.5651 87.435H0.435059V173.565H86.5651V87.435Z" fill="white" stroke="black"/>
<path d="M173.565 87.435H87.4351V173.565H173.565V87.435Z" fill="white" stroke="black"/>
<path d="M260.565 87.435H174.435V173.565H260.565V87.435Z" fill="white" stroke="black"/>
<path d="M347.565 87.435H261.435V173.565H347.565V87.435Z" fill="white" stroke="black"/>
<path d="M86.5651 174.435H0.435059V260.565H86.5651V174.435Z" fill="white" stroke="black"/>
<path d="M173.565 174.435H87.4351V260.565H173.565V174.435Z" fill="white" stroke="black"/>
<path d="M260.565 174.435H174.435V260.565H260.565V174.435Z" fill="white" stroke="black"/>
<path d="M347.565 174.435H261.435V260.565H347.565V174.435Z" fill="white" stroke="black"/>
<path d="M86.5651 260.565H0.435059V346.695H86.5651V260.565Z" fill="white" stroke="black"/>
<path d="M173.565 260.565H87.4351V346.695H173.565V260.565Z" fill="white" stroke="black"/>
<path d="M260.565 260.565H174.435V346.695H260.565V260.565Z" fill="white" stroke="black"/>
<path d="M347.565 260.565H261.435V346.695H347.565V260.565Z" fill="white" stroke="black"/>
<path d="M49.6215 27.5237V59.16H42.9328V33.8725H42.7474L35.5026 38.4141V32.4822L43.3344 27.5237H49.6215Z" fill="black"/>
<path d="M119.364 59.16V54.3404L130.625 43.9133C131.583 42.9865 132.386 42.1524 133.035 41.4109C133.695 40.6694 134.194 39.9433 134.533 39.2328C134.874 38.5119 135.043 37.7344 135.043 36.9003C135.043 35.9734 134.833 35.1752 134.41 34.5058C133.988 33.8262 133.411 33.3061 132.68 32.9457C131.949 32.575 131.119 32.3896 130.193 32.3896C129.225 32.3896 128.381 32.5852 127.659 32.9766C126.939 33.3679 126.382 33.9292 125.992 34.6604C125.6 35.3915 125.404 36.2618 125.404 37.271H119.055C119.055 35.201 119.524 33.404 120.461 31.8798C121.398 30.3557 122.711 29.1765 124.4 28.3423C126.089 27.5082 128.035 27.0911 130.239 27.0911C132.505 27.0911 134.477 27.4928 136.156 28.296C137.845 29.089 139.157 30.1909 140.094 31.6018C141.032 33.0126 141.5 34.6295 141.5 36.4522C141.5 37.6469 141.264 38.826 140.79 39.9897C140.327 41.1534 139.498 42.4459 138.303 43.867C137.109 45.2779 135.424 46.972 133.252 48.9492L128.633 53.4753V53.6916H141.918V59.16H119.364Z" fill="black"/>
<path d="M217.856 59.5926C215.549 59.5926 213.494 59.196 211.692 58.4031C209.901 57.5998 208.484 56.4979 207.444 55.0974C206.414 53.6865 205.884 52.0593 205.853 50.216H212.588C212.63 50.9883 212.882 51.668 213.345 52.255C213.819 52.8317 214.447 53.2797 215.23 53.599C216.012 53.9182 216.893 54.0778 217.871 54.0778C218.891 54.0778 219.792 53.8975 220.575 53.5371C221.358 53.1767 221.97 52.6772 222.413 52.0387C222.856 51.4002 223.077 50.6639 223.077 49.8298C223.077 48.9853 222.84 48.2386 222.367 47.5899C221.903 46.9307 221.234 46.4159 220.358 46.0451C219.493 45.6744 218.463 45.489 217.269 45.489H214.318V40.5767H217.269C218.278 40.5767 219.169 40.4017 219.941 40.0515C220.724 39.7014 221.331 39.2173 221.764 38.5995C222.196 37.9712 222.413 37.2401 222.413 36.4059C222.413 35.6129 222.222 34.9178 221.841 34.3205C221.471 33.7129 220.945 33.2392 220.266 32.8993C219.596 32.5595 218.814 32.3896 217.918 32.3896C217.011 32.3896 216.182 32.5543 215.43 32.8839C214.679 33.2031 214.077 33.6614 213.623 34.2587C213.17 34.856 212.928 35.5563 212.897 36.3596H206.487C206.517 34.5367 207.037 32.9303 208.047 31.5399C209.056 30.1497 210.416 29.0632 212.125 28.2806C213.844 27.4876 215.786 27.0911 217.949 27.0911C220.132 27.0911 222.042 27.4876 223.68 28.2806C225.317 29.0735 226.589 30.1445 227.495 31.4936C228.412 32.8324 228.865 34.3359 228.854 36.0042C228.865 37.7756 228.314 39.2533 227.201 40.4377C226.1 41.622 224.663 42.3738 222.891 42.693V42.9401C225.219 43.2388 226.991 44.0472 228.205 45.3654C229.431 46.6733 230.038 48.3107 230.028 50.2777C230.038 52.0799 229.519 53.6813 228.468 55.0819C227.428 56.4824 225.991 57.5843 224.158 58.3876C222.325 59.1909 220.225 59.5926 217.856 59.5926Z" fill="black"/>
<path d="M291.845 53.599V48.3314L305.052 27.5237H309.594V34.8148H306.906L298.58 47.9915V48.2386H317.348V53.599H291.845ZM307.029 59.16V51.9924L307.153 49.6599V27.5237H313.424V59.16H307.029Z" fill="black"/>
<path d="M44.0354 146.592C41.8521 146.592 39.9057 146.191 38.1963 145.387C36.497 144.584 35.148 143.477 34.149 142.067C33.1501 140.656 32.63 139.039 32.5889 137.216H39.0767C39.1488 138.441 39.6638 139.435 40.6215 140.197C41.5793 140.959 42.7172 141.34 44.0354 141.34C45.0858 141.34 46.0126 141.109 46.8159 140.645C47.6295 140.172 48.2629 139.518 48.716 138.683C49.1794 137.839 49.4111 136.871 49.4111 135.779C49.4111 134.667 49.1742 133.689 48.7005 132.845C48.2371 132 47.5934 131.34 46.7696 130.867C45.9457 130.393 45.0034 130.151 43.9427 130.141C43.0158 130.141 42.1148 130.331 41.2394 130.712C40.3743 131.093 39.6998 131.614 39.2157 132.273L33.2685 131.206L34.7669 114.523H54.1071V119.992H40.2817L39.4629 127.917H39.6483C40.2044 127.134 41.0437 126.485 42.1663 125.97C43.2887 125.455 44.5451 125.198 45.9355 125.198C47.8406 125.198 49.5399 125.645 51.033 126.541C52.5263 127.438 53.7055 128.669 54.5705 130.234C55.4356 131.788 55.8629 133.581 55.8527 135.61C55.8629 137.741 55.3687 139.636 54.3698 141.294C53.3811 142.942 51.996 144.239 50.2144 145.186C48.4431 146.124 46.3834 146.592 44.0354 146.592Z" fill="black"/>
<path d="M130.848 146.592C129.22 146.582 127.65 146.31 126.136 145.774C124.633 145.239 123.283 144.368 122.089 143.163C120.894 141.958 119.947 140.362 119.247 138.374C118.557 136.387 118.211 133.946 118.211 131.052C118.222 128.395 118.525 126.022 119.123 123.932C119.73 121.83 120.596 120.049 121.718 118.586C122.851 117.124 124.206 116.012 125.781 115.25C127.357 114.477 129.123 114.091 131.079 114.091C133.19 114.091 135.055 114.503 136.671 115.327C138.288 116.141 139.585 117.247 140.564 118.648C141.553 120.049 142.15 121.619 142.356 123.36H135.76C135.503 122.258 134.961 121.393 134.138 120.765C133.314 120.137 132.295 119.823 131.079 119.823C129.019 119.823 127.454 120.718 126.383 122.51C125.323 124.302 124.782 126.737 124.762 129.816H124.977C125.451 128.879 126.09 128.081 126.893 127.422C127.706 126.753 128.629 126.243 129.658 125.893C130.698 125.532 131.795 125.352 132.948 125.352C134.823 125.352 136.491 125.795 137.953 126.681C139.416 127.556 140.569 128.761 141.413 130.296C142.258 131.83 142.68 133.586 142.68 135.563C142.68 137.705 142.181 139.611 141.182 141.278C140.194 142.947 138.809 144.255 137.027 145.202C135.255 146.139 133.195 146.603 130.848 146.592ZM130.817 141.34C131.847 141.34 132.768 141.093 133.582 140.599C134.395 140.105 135.034 139.435 135.497 138.591C135.961 137.746 136.192 136.799 136.192 135.749C136.192 134.698 135.961 133.756 135.497 132.921C135.044 132.088 134.416 131.423 133.613 130.929C132.809 130.435 131.893 130.188 130.863 130.188C130.09 130.188 129.375 130.331 128.716 130.62C128.067 130.908 127.496 131.31 127.001 131.825C126.517 132.34 126.136 132.937 125.858 133.616C125.58 134.286 125.441 135.001 125.441 135.764C125.441 136.783 125.672 137.716 126.136 138.56C126.61 139.404 127.248 140.079 128.052 140.583C128.865 141.088 129.787 141.34 130.817 141.34Z" fill="black"/>
<path d="M208.38 146.16L221.495 120.208V119.992H206.218V114.523H228.416V120.07L215.285 146.16H208.38Z" fill="black"/>
<path d="M304.486 146.592C302.108 146.592 299.992 146.206 298.138 145.434C296.294 144.651 294.847 143.586 293.797 142.236C292.746 140.887 292.221 139.358 292.221 137.649C292.221 136.33 292.52 135.121 293.117 134.018C293.725 132.906 294.549 131.984 295.589 131.253C296.629 130.511 297.792 130.038 299.08 129.832V129.616C297.391 129.276 296.021 128.457 294.971 127.16C293.921 125.852 293.395 124.333 293.395 122.603C293.395 120.965 293.874 119.508 294.832 118.231C295.79 116.944 297.102 115.934 298.771 115.204C300.449 114.462 302.355 114.091 304.486 114.091C306.618 114.091 308.519 114.462 310.186 115.204C311.865 115.945 313.183 116.959 314.141 118.246C315.099 119.523 315.583 120.975 315.593 122.603C315.583 124.343 315.047 125.862 313.986 127.16C312.926 128.457 311.566 129.276 309.909 129.616V129.832C311.176 130.038 312.324 130.511 313.353 131.253C314.394 131.984 315.218 132.906 315.825 134.018C316.443 135.121 316.757 136.33 316.767 137.649C316.757 139.358 316.227 140.887 315.176 142.236C314.126 143.586 312.674 144.651 310.82 145.434C308.976 146.206 306.866 146.592 304.486 146.592ZM304.486 141.68C305.548 141.68 306.474 141.49 307.267 141.109C308.06 140.717 308.678 140.182 309.121 139.502C309.574 138.812 309.8 138.019 309.8 137.123C309.8 136.206 309.569 135.398 309.105 134.698C308.642 133.988 308.014 133.431 307.221 133.03C306.428 132.618 305.516 132.411 304.486 132.411C303.467 132.411 302.556 132.618 301.753 133.03C300.949 133.431 300.315 133.988 299.852 134.698C299.399 135.398 299.173 136.206 299.173 137.123C299.173 138.019 299.394 138.812 299.837 139.502C300.28 140.182 300.903 140.717 301.706 141.109C302.509 141.49 303.436 141.68 304.486 141.68ZM304.486 127.545C305.372 127.545 306.16 127.365 306.85 127.005C307.54 126.645 308.081 126.146 308.472 125.507C308.863 124.868 309.059 124.132 309.059 123.298C309.059 122.474 308.863 121.753 308.472 121.135C308.081 120.507 307.545 120.017 306.866 119.668C306.186 119.307 305.393 119.127 304.486 119.127C303.591 119.127 302.797 119.307 302.108 119.668C301.418 120.017 300.877 120.507 300.486 121.135C300.105 121.753 299.914 122.474 299.914 123.298C299.914 124.132 300.11 124.868 300.501 125.507C300.892 126.146 301.433 126.645 302.123 127.005C302.813 127.365 303.6 127.545 304.486 127.545Z" fill="black"/>
<path d="M43.1524 201.091C44.7796 201.091 46.3449 201.364 47.8484 201.91C49.3623 202.456 50.7113 203.326 51.8957 204.52C53.0903 205.715 54.0325 207.301 54.7225 209.278C55.4228 211.246 55.7781 213.66 55.7884 216.523C55.7884 219.211 55.4847 221.611 54.8771 223.721C54.2797 225.822 53.4198 227.609 52.2973 229.081C51.1748 230.554 49.8205 231.677 48.2346 232.449C46.6487 233.211 44.8774 233.592 42.9207 233.592C40.8096 233.592 38.9455 233.186 37.3287 232.372C35.7119 231.548 34.4092 230.431 33.4205 229.02C32.4422 227.599 31.8501 226.003 31.6441 224.231H38.2401C38.4976 225.385 39.0383 226.281 39.8621 226.919C40.686 227.548 41.7055 227.862 42.9207 227.862C44.9804 227.862 46.5457 226.966 47.6167 225.173C48.6878 223.372 49.2284 220.905 49.2387 217.774H49.0225C48.5487 218.701 47.9102 219.499 47.107 220.168C46.3037 220.828 45.382 221.338 44.3419 221.698C43.3121 222.059 42.2153 222.239 41.0515 222.239C39.1876 222.239 37.5244 221.801 36.062 220.926C34.5997 220.05 33.4463 218.845 32.6018 217.311C31.7573 215.777 31.3351 214.026 31.3351 212.059C31.3249 209.937 31.814 208.047 32.8026 206.389C33.7913 204.732 35.1712 203.434 36.9425 202.497C38.7241 201.549 40.7941 201.08 43.1524 201.091ZM43.1988 206.343C42.1586 206.343 41.2318 206.59 40.4182 207.084C39.6149 207.579 38.9764 208.243 38.5027 209.078C38.0393 209.912 37.8127 210.844 37.8231 211.874C37.8231 212.913 38.0496 213.85 38.5027 214.685C38.9662 215.509 39.5944 216.168 40.3873 216.662C41.1906 217.146 42.1071 217.388 43.1369 217.388C43.9093 217.388 44.6251 217.244 45.2842 216.955C45.9433 216.667 46.5148 216.271 46.9989 215.766C47.4931 215.251 47.8793 214.659 48.1574 213.99C48.4354 213.321 48.5744 212.61 48.5744 211.858C48.5642 210.859 48.3273 209.942 47.8639 209.108C47.4004 208.275 46.762 207.605 45.9484 207.1C45.1348 206.595 44.2183 206.343 43.1988 206.343Z" fill="black"/>
<path d="M121.647 201.523V233.16H114.958V207.873H114.773L107.529 212.414V206.482L115.36 201.523H121.647ZM141.571 233.855C138.914 233.845 136.627 233.191 134.712 231.893C132.806 230.596 131.34 228.716 130.31 226.255C129.29 223.794 128.785 220.833 128.796 217.373C128.796 213.923 129.306 210.983 130.325 208.552C131.354 206.122 132.822 204.273 134.727 203.007C136.643 201.73 138.924 201.091 141.571 201.091C144.217 201.091 146.493 201.73 148.399 203.007C150.314 204.284 151.786 206.137 152.816 208.568C153.846 210.988 154.356 213.923 154.346 217.373C154.346 220.843 153.831 223.809 152.801 226.27C151.781 228.732 150.319 230.611 148.414 231.909C146.509 233.206 144.228 233.855 141.571 233.855ZM141.571 228.31C143.383 228.31 144.83 227.398 145.911 225.575C146.993 223.753 147.529 221.018 147.518 217.373C147.518 214.974 147.271 212.975 146.776 211.379C146.292 209.783 145.602 208.583 144.706 207.779C143.821 206.976 142.776 206.575 141.571 206.575C139.768 206.575 138.327 207.476 137.245 209.279C136.164 211.08 135.618 213.779 135.608 217.373C135.608 219.803 135.85 221.832 136.334 223.459C136.828 225.076 137.524 226.291 138.42 227.105C139.315 227.908 140.366 228.31 141.571 228.31Z" fill="black"/>
<path d="M212.98 201.523V233.16H206.292V207.873H206.106L198.861 212.414V206.482L206.693 201.523H212.98ZM234.263 201.523V233.16H227.575V207.873H227.388L220.144 212.414V206.482L227.976 201.523H234.263Z" fill="black"/>
<path d="M296.486 201.523V233.16H289.798V207.873H289.613L282.368 212.414V206.482L290.2 201.523H296.486ZM304.006 233.16V228.34L315.267 217.913C316.225 216.987 317.028 216.152 317.677 215.411C318.336 214.669 318.835 213.943 319.175 213.233C319.515 212.512 319.685 211.735 319.685 210.9C319.685 209.974 319.474 209.175 319.052 208.506C318.63 207.826 318.053 207.306 317.321 206.946C316.59 206.575 315.761 206.389 314.835 206.389C313.866 206.389 313.022 206.585 312.301 206.976C311.58 207.368 311.024 207.929 310.633 208.66C310.241 209.392 310.045 210.262 310.045 211.271H303.697C303.697 209.201 304.165 207.404 305.102 205.879C306.04 204.356 307.353 203.176 309.041 202.342C310.73 201.509 312.677 201.091 314.881 201.091C317.146 201.091 319.119 201.493 320.797 202.296C322.486 203.089 323.799 204.191 324.736 205.602C325.673 207.013 326.142 208.629 326.142 210.452C326.142 211.647 325.905 212.826 325.431 213.99C324.968 215.154 324.138 216.446 322.944 217.867C321.749 219.278 320.066 220.972 317.893 222.949L313.274 227.475V227.691H326.559V233.16H304.006Z" fill="black"/>
<path d="M34.8494 288.523V320.16H28.1607V294.873H27.9753L20.7305 299.414V293.482L28.5624 288.523H34.8494ZM54.0622 320.592C51.7554 320.592 49.7009 320.196 47.8987 319.403C46.1068 318.6 44.6908 317.498 43.6506 316.097C42.6208 314.687 42.0904 313.059 42.0596 311.216H48.7947C48.8358 311.988 49.0881 312.668 49.5516 313.255C50.0253 313.832 50.6535 314.28 51.4362 314.599C52.2188 314.918 53.0993 315.077 54.0777 315.077C55.0972 315.077 55.9983 314.897 56.7809 314.537C57.5637 314.177 58.1764 313.678 58.6192 313.039C59.0621 312.4 59.2835 311.664 59.2835 310.83C59.2835 309.985 59.0466 309.239 58.5729 308.59C58.1094 307.93 57.44 307.416 56.5647 307.045C55.6996 306.674 54.6698 306.489 53.4752 306.489H50.5247V301.577H53.4752C54.4845 301.577 55.3753 301.402 56.1476 301.051C56.9303 300.702 57.5379 300.217 57.9704 299.599C58.4029 298.971 58.6192 298.24 58.6192 297.406C58.6192 296.613 58.4287 295.917 58.0476 295.321C57.6769 294.713 57.1517 294.239 56.472 293.899C55.8026 293.56 55.02 293.389 54.124 293.389C53.2177 293.389 52.3887 293.555 51.637 293.884C50.8852 294.204 50.2827 294.661 49.8296 295.259C49.3765 295.856 49.1345 296.556 49.1036 297.36H42.6929C42.7238 295.536 43.2439 293.93 44.2531 292.54C45.2623 291.15 46.6217 290.063 48.3312 289.28C50.051 288.488 51.9923 288.091 54.1549 288.091C56.3382 288.091 58.2484 288.488 59.8859 289.28C61.5233 290.074 62.7951 291.145 63.7014 292.494C64.618 293.832 65.0711 295.336 65.0608 297.004C65.0711 298.775 64.5201 300.254 63.4079 301.438C62.306 302.622 60.8694 303.373 59.0981 303.693V303.941C61.4255 304.239 63.1968 305.047 64.412 306.365C65.6375 307.673 66.2451 309.311 66.2348 311.277C66.2451 313.08 65.725 314.682 64.6746 316.081C63.6345 317.482 62.1979 318.584 60.3648 319.387C58.5317 320.191 56.4308 320.592 54.0622 320.592Z" fill="black"/>
<path d="M121.881 288.523V320.16H115.192V294.873H115.007L107.762 299.414V293.482L115.593 288.523H121.881ZM128.921 314.599V309.331L142.128 288.523H146.67V295.815H143.982L135.657 308.992V309.239H154.425V314.599H128.921ZM144.106 320.16V312.992L144.23 310.66V288.523H150.501V320.16H144.106Z" fill="black"/>
<path d="M209.603 288.523V320.16H202.914V294.873H202.729L195.484 299.414V293.482L203.316 288.523H209.603ZM228.677 320.592C226.493 320.592 224.547 320.191 222.837 319.387C221.138 318.584 219.789 317.477 218.79 316.067C217.791 314.656 217.271 313.039 217.23 311.216H223.718C223.79 312.441 224.305 313.435 225.263 314.197C226.221 314.959 227.359 315.34 228.677 315.34C229.727 315.34 230.654 315.109 231.457 314.645C232.271 314.172 232.904 313.518 233.357 312.683C233.821 311.839 234.053 310.871 234.053 309.779C234.053 308.667 233.816 307.689 233.342 306.845C232.878 306 232.235 305.34 231.411 304.867C230.587 304.393 229.645 304.151 228.584 304.141C227.657 304.141 226.756 304.331 225.881 304.712C225.016 305.093 224.341 305.614 223.857 306.273L217.91 305.206L219.408 288.523H238.749V293.992H224.923L224.104 301.917H224.289C224.845 301.134 225.685 300.485 226.807 299.97C227.93 299.455 229.187 299.198 230.577 299.198C232.482 299.198 234.181 299.645 235.674 300.542C237.168 301.438 238.347 302.669 239.212 304.234C240.077 305.788 240.505 307.581 240.494 309.61C240.505 311.741 240.01 313.636 239.011 315.294C238.022 316.942 236.637 318.239 234.856 319.186C233.084 320.124 231.025 320.592 228.677 320.592Z" fill="black"/>
</g>
<defs>
<clipPath id="clip0_103_638">
<rect width="348" height="348" fill="white"/>
</clipPath>
</defs>
</svg>
