<svg width="472" height="472" viewBox="0 0 472 472" fill="none" xmlns="http://www.w3.org/2000/svg">
<rect x="0.5" y="0.5" width="235" height="235" fill="white"/>
<rect x="0.5" y="0.5" width="235" height="235" fill="white"/>
<rect x="0.5" y="0.5" width="235" height="235" stroke="black"/>
<path d="M123.768 99.6364V136H116.08V106.934H115.866L107.539 112.154V105.336L116.541 99.6364H123.768Z" fill="black"/>
<rect x="236.5" y="0.5" width="235" height="235" fill="white"/>
<rect x="236.5" y="0.5" width="235" height="235" fill="white"/>
<rect x="236.5" y="0.5" width="235" height="235" stroke="black"/>
<rect x="0.5" y="236.5" width="235" height="235" fill="white"/>
<rect x="0.5" y="236.5" width="235" height="235" fill="white"/>
<rect x="0.5" y="236.5" width="235" height="235" stroke="black"/>
<rect x="236.5" y="236.5" width="235" height="235" fill="white"/>
<rect x="236.5" y="236.5" width="235" height="235" fill="white"/>
<rect x="236.5" y="236.5" width="235" height="235" stroke="black"/>
<path d="M340.947 136V130.46L353.891 118.475C354.992 117.41 355.915 116.451 356.661 115.599C357.419 114.746 357.993 113.912 358.384 113.095C358.774 112.267 358.969 111.373 358.969 110.414C358.969 109.349 358.727 108.431 358.241 107.662C357.756 106.881 357.093 106.283 356.253 105.869C355.412 105.442 354.46 105.229 353.394 105.229C352.281 105.229 351.311 105.454 350.482 105.904C349.654 106.354 349.014 106.999 348.565 107.839C348.115 108.68 347.89 109.68 347.89 110.84H340.592C340.592 108.461 341.131 106.395 342.208 104.643C343.285 102.892 344.795 101.536 346.736 100.577C348.677 99.6186 350.914 99.1392 353.447 99.1392C356.052 99.1392 358.318 99.6009 360.248 100.524C362.189 101.436 363.698 102.702 364.776 104.324C365.853 105.946 366.391 107.804 366.391 109.899C366.391 111.272 366.119 112.628 365.575 113.965C365.042 115.303 364.089 116.788 362.716 118.422C361.343 120.044 359.407 121.991 356.91 124.263L351.601 129.466V129.714H366.871V136H340.947Z" fill="black"/>
<path d="M121.388 372.497C118.737 372.497 116.375 372.041 114.304 371.13C112.244 370.207 110.617 368.94 109.421 367.33C108.237 365.709 107.628 363.838 107.592 361.719H115.334C115.381 362.607 115.671 363.388 116.204 364.063C116.748 364.726 117.47 365.241 118.37 365.608C119.27 365.975 120.282 366.158 121.406 366.158C122.578 366.158 123.614 365.951 124.513 365.537C125.413 365.123 126.117 364.549 126.626 363.815C127.135 363.081 127.39 362.234 127.39 361.276C127.39 360.305 127.118 359.447 126.573 358.701C126.04 357.943 125.271 357.352 124.265 356.925C123.271 356.499 122.087 356.286 120.714 356.286H117.322V350.64H120.714C121.874 350.64 122.898 350.439 123.786 350.036C124.685 349.634 125.384 349.077 125.881 348.367C126.378 347.645 126.626 346.805 126.626 345.846C126.626 344.934 126.407 344.135 125.969 343.449C125.543 342.75 124.94 342.206 124.158 341.815C123.389 341.425 122.489 341.229 121.46 341.229C120.418 341.229 119.465 341.419 118.601 341.798C117.737 342.165 117.044 342.691 116.523 343.378C116.003 344.064 115.724 344.869 115.689 345.793H108.32C108.356 343.697 108.954 341.851 110.114 340.253C111.274 338.655 112.836 337.406 114.801 336.506C116.778 335.595 119.009 335.139 121.495 335.139C124.004 335.139 126.2 335.595 128.082 336.506C129.964 337.418 131.426 338.649 132.468 340.2C133.522 341.738 134.042 343.467 134.031 345.384C134.042 347.42 133.409 349.119 132.131 350.48C130.864 351.841 129.213 352.705 127.177 353.072V353.357C129.852 353.7 131.888 354.629 133.285 356.144C134.693 357.647 135.392 359.53 135.38 361.79C135.392 363.862 134.794 365.703 133.587 367.312C132.391 368.922 130.74 370.189 128.633 371.112C126.526 372.036 124.111 372.497 121.388 372.497Z" fill="black"/>
</svg>
