<svg width="468" height="468" viewBox="0 0 468 468" fill="none" xmlns="http://www.w3.org/2000/svg">
<g clip-path="url(#clip0_242_276)">
<rect width="468" height="468" fill="white"/>
<rect x="0.5" y="0.5" width="77" height="77" fill="white" stroke="black"/>
<rect x="78.5" y="0.5" width="77" height="77" fill="white" stroke="black"/>
<rect x="156.5" y="0.5" width="77" height="77" fill="white" stroke="black"/>
<rect x="234.5" y="0.5" width="77" height="77" fill="white" stroke="black"/>
<rect x="312.5" y="0.5" width="77" height="77" fill="white" stroke="black"/>
<rect x="390.5" y="0.5" width="77" height="77" fill="white" stroke="black"/>
<path d="M40.7678 20.6364V57H33.0795V27.9339H32.8665L24.5391 33.1541V26.3359L33.5412 20.6364H40.7678Z" fill="black"/>
<path d="M103.947 57V51.4602L116.891 39.4751C117.992 38.4098 118.915 37.451 119.661 36.5987C120.419 35.7464 120.993 34.9119 121.384 34.0952C121.774 33.2666 121.969 32.3729 121.969 31.4141C121.969 30.3487 121.727 29.4313 121.241 28.6619C120.756 27.8807 120.093 27.2829 119.253 26.8686C118.412 26.4425 117.46 26.2294 116.394 26.2294C115.281 26.2294 114.311 26.4543 113.482 26.9041C112.654 27.3539 112.014 27.9991 111.565 28.8395C111.115 29.6799 110.89 30.6802 110.89 31.8402H103.592C103.592 29.4609 104.131 27.3954 105.208 25.6435C106.285 23.8916 107.795 22.5362 109.736 21.5774C111.677 20.6186 113.914 20.1392 116.447 20.1392C119.052 20.1392 121.318 20.6009 123.248 21.5241C125.189 22.4356 126.698 23.7022 127.776 25.3239C128.853 26.9455 129.391 28.804 129.391 30.8991C129.391 32.2723 129.119 33.6276 128.575 34.9652C128.042 36.3028 127.089 37.7884 125.716 39.4219C124.343 41.0436 122.407 42.9908 119.91 45.2635L114.601 50.4659V50.7145H129.871V57H103.947Z" fill="black"/>
<path d="M195.388 57.4972C192.737 57.4972 190.375 57.0414 188.304 56.13C186.244 55.2067 184.617 53.9401 183.421 52.3303C182.237 50.7086 181.628 48.8383 181.592 46.7195H189.334C189.381 47.6072 189.671 48.3885 190.204 49.0632C190.748 49.7261 191.47 50.241 192.37 50.608C193.27 50.9749 194.282 51.1584 195.406 51.1584C196.578 51.1584 197.614 50.9512 198.513 50.5369C199.413 50.1226 200.117 49.5485 200.626 48.8146C201.135 48.0807 201.39 47.2344 201.39 46.2756C201.39 45.3049 201.118 44.4467 200.573 43.701C200.04 42.9434 199.271 42.3516 198.265 41.9254C197.271 41.4993 196.087 41.2862 194.714 41.2862H191.322V35.6399H194.714C195.874 35.6399 196.898 35.4387 197.786 35.0362C198.685 34.6338 199.384 34.0774 199.881 33.3672C200.378 32.6451 200.626 31.8047 200.626 30.8459C200.626 29.9344 200.407 29.1354 199.969 28.4489C199.543 27.7505 198.94 27.206 198.158 26.8153C197.389 26.4247 196.489 26.2294 195.46 26.2294C194.418 26.2294 193.465 26.4188 192.601 26.7976C191.737 27.1645 191.044 27.6913 190.523 28.3778C190.003 29.0644 189.724 29.8693 189.689 30.7926H182.32C182.356 28.6974 182.954 26.8509 184.114 25.2528C185.274 23.6548 186.836 22.406 188.801 21.5064C190.778 20.5949 193.009 20.1392 195.495 20.1392C198.004 20.1392 200.2 20.5949 202.082 21.5064C203.964 22.4178 205.426 23.6489 206.468 25.1996C207.522 26.7384 208.042 28.4666 208.031 30.3842C208.042 32.4202 207.409 34.1188 206.131 35.4801C204.864 36.8414 203.213 37.7055 201.177 38.0724V38.3565C203.852 38.6998 205.888 39.629 207.285 41.1442C208.693 42.6475 209.392 44.5296 209.38 46.7905C209.392 48.862 208.794 50.7027 207.587 52.3125C206.391 53.9223 204.74 55.1889 202.633 56.1122C200.526 57.0355 198.111 57.4972 195.388 57.4972Z" fill="black"/>
<path d="M258.397 50.608V44.5533L273.578 20.6364H278.798V29.017H275.709L266.138 44.1626V44.4467H287.712V50.608H258.397ZM275.851 57V48.7614L275.993 46.0803V20.6364H283.202V57H275.851Z" fill="black"/>
<path d="M350.229 57.4972C347.719 57.4972 345.482 57.0355 343.517 56.1122C341.564 55.1889 340.013 53.9164 338.865 52.2947C337.717 50.6731 337.119 48.8146 337.072 46.7195H344.529C344.612 48.1281 345.204 49.2704 346.305 50.1463C347.406 51.0223 348.714 51.4602 350.229 51.4602C351.436 51.4602 352.501 51.1939 353.425 50.6612C354.36 50.1167 355.088 49.3651 355.609 48.4062C356.141 47.4356 356.408 46.3229 356.408 45.0682C356.408 43.7898 356.135 42.6652 355.591 41.6946C355.058 40.724 354.318 39.9664 353.371 39.4219C352.424 38.8774 351.341 38.5992 350.122 38.5874C349.057 38.5874 348.021 38.8063 347.015 39.2443C346.021 39.6823 345.245 40.2801 344.689 41.0376L337.853 39.8125L339.575 20.6364H361.805V26.9219H345.914L344.973 36.0305H345.186C345.825 35.1309 346.79 34.3852 348.08 33.7933C349.371 33.2015 350.815 32.9055 352.413 32.9055C354.603 32.9055 356.556 33.4205 358.272 34.4503C359.988 35.4801 361.344 36.8946 362.338 38.6939C363.332 40.4813 363.824 42.541 363.812 44.8729C363.824 47.3232 363.255 49.5012 362.107 51.407C360.971 53.3009 359.379 54.7924 357.331 55.8814C355.295 56.9586 352.928 57.4972 350.229 57.4972Z" fill="black"/>
<path d="M428.903 57.4972C427.033 57.4853 425.228 57.1716 423.488 56.5561C421.76 55.9406 420.209 54.9403 418.836 53.5554C417.463 52.1705 416.374 50.3357 415.569 48.0511C414.776 45.7666 414.379 42.9612 414.379 39.6349C414.391 36.581 414.74 33.8525 415.427 31.4496C416.125 29.0348 417.12 26.987 418.41 25.3061C419.712 23.6252 421.268 22.3468 423.08 21.4709C424.891 20.5831 426.921 20.1392 429.17 20.1392C431.596 20.1392 433.739 20.6127 435.597 21.5597C437.456 22.4948 438.947 23.7673 440.072 25.3771C441.208 26.987 441.895 28.7921 442.131 30.7926H434.55C434.254 29.526 433.632 28.5317 432.685 27.8097C431.738 27.0876 430.567 26.7266 429.17 26.7266C426.802 26.7266 425.003 27.7564 423.772 29.8161C422.553 31.8757 421.931 34.6752 421.908 38.2145H422.156C422.701 37.1373 423.435 36.2199 424.358 35.4624C425.293 34.6929 426.353 34.107 427.536 33.7045C428.732 33.2902 429.992 33.0831 431.318 33.0831C433.473 33.0831 435.39 33.5921 437.071 34.6101C438.752 35.6162 440.078 37.0012 441.048 38.7649C442.019 40.5286 442.504 42.5469 442.504 44.8196C442.504 47.2817 441.93 49.4716 440.782 51.3892C439.646 53.3068 438.054 54.8101 436.006 55.8991C433.97 56.9763 431.602 57.509 428.903 57.4972ZM428.868 51.4602C430.052 51.4602 431.111 51.1761 432.046 50.608C432.981 50.0398 433.715 49.2704 434.248 48.2997C434.781 47.3291 435.047 46.2401 435.047 45.0327C435.047 43.8253 434.781 42.7422 434.248 41.7834C433.727 40.8246 433.005 40.0611 432.082 39.4929C431.158 38.9247 430.105 38.6406 428.921 38.6406C428.033 38.6406 427.211 38.8063 426.453 39.1378C425.707 39.4692 425.05 39.9309 424.482 40.5227C423.926 41.1146 423.488 41.8011 423.168 42.5824C422.849 43.3518 422.689 44.1745 422.689 45.0504C422.689 46.2223 422.955 47.2936 423.488 48.2642C424.032 49.2348 424.766 50.0102 425.69 50.5902C426.625 51.1702 427.684 51.4602 428.868 51.4602Z" fill="black"/>
<rect x="0.5" y="78.5" width="77" height="77" fill="white" stroke="black"/>
<rect x="78.5" y="78.5" width="77" height="77" fill="white" stroke="black"/>
<rect x="156.5" y="78.5" width="77" height="77" fill="white" stroke="black"/>
<rect x="234.5" y="78.5" width="77" height="77" fill="white" stroke="black"/>
<rect x="312.5" y="78.5" width="77" height="77" fill="white" stroke="black"/>
<rect x="390.5" y="78.5" width="77" height="77" fill="white" stroke="black"/>
<path d="M26.3857 135L41.4602 105.17V104.922H23.8999V98.6364H49.4148V105.011L34.3224 135H26.3857Z" fill="black"/>
<path d="M117.513 135.497C114.778 135.497 112.346 135.053 110.215 134.165C108.096 133.266 106.433 132.041 105.226 130.49C104.018 128.939 103.415 127.182 103.415 125.217C103.415 123.701 103.758 122.311 104.445 121.044C105.143 119.766 106.09 118.706 107.286 117.866C108.481 117.013 109.819 116.469 111.298 116.232V115.984C109.357 115.593 107.783 114.652 106.575 113.161C105.368 111.657 104.764 109.911 104.764 107.923C104.764 106.04 105.315 104.366 106.415 102.898C107.516 101.418 109.026 100.258 110.943 99.4176C112.873 98.5653 115.062 98.1392 117.513 98.1392C119.963 98.1392 122.147 98.5653 124.065 99.4176C125.994 100.27 127.509 101.436 128.61 102.915C129.711 104.383 130.267 106.052 130.279 107.923C130.267 109.923 129.652 111.669 128.433 113.161C127.213 114.652 125.651 115.593 123.745 115.984V116.232C125.201 116.469 126.521 117.013 127.705 117.866C128.9 118.706 129.847 119.766 130.545 121.044C131.256 122.311 131.617 123.701 131.629 125.217C131.617 127.182 131.007 128.939 129.8 130.49C128.592 132.041 126.923 133.266 124.793 134.165C122.674 135.053 120.247 135.497 117.513 135.497ZM117.513 129.851C118.732 129.851 119.797 129.632 120.709 129.194C121.62 128.744 122.33 128.129 122.839 127.347C123.36 126.554 123.621 125.643 123.621 124.613C123.621 123.559 123.354 122.63 122.822 121.825C122.289 121.009 121.567 120.369 120.656 119.908C119.744 119.434 118.696 119.197 117.513 119.197C116.341 119.197 115.293 119.434 114.37 119.908C113.447 120.369 112.719 121.009 112.186 121.825C111.665 122.63 111.405 123.559 111.405 124.613C111.405 125.643 111.659 126.554 112.168 127.347C112.677 128.129 113.393 128.744 114.317 129.194C115.24 129.632 116.305 129.851 117.513 129.851ZM117.513 113.604C118.531 113.604 119.436 113.397 120.229 112.983C121.022 112.569 121.644 111.995 122.094 111.261C122.544 110.527 122.768 109.68 122.768 108.722C122.768 107.775 122.544 106.946 122.094 106.236C121.644 105.514 121.028 104.951 120.247 104.549C119.466 104.135 118.554 103.928 117.513 103.928C116.483 103.928 115.571 104.135 114.778 104.549C113.985 104.951 113.364 105.514 112.914 106.236C112.476 106.946 112.257 107.775 112.257 108.722C112.257 109.68 112.482 110.527 112.932 111.261C113.382 111.995 114.003 112.569 114.796 112.983C115.589 113.397 116.495 113.604 117.513 113.604Z" fill="black"/>
<path d="M195.104 98.1392C196.975 98.1392 198.774 98.4529 200.502 99.0803C202.242 99.7076 203.793 100.708 205.154 102.081C206.527 103.454 207.61 105.277 208.403 107.55C209.208 109.811 209.617 112.586 209.629 115.877C209.629 118.967 209.279 121.725 208.581 124.151C207.894 126.566 206.906 128.62 205.616 130.312C204.326 132.005 202.769 133.295 200.946 134.183C199.123 135.059 197.087 135.497 194.838 135.497C192.411 135.497 190.269 135.03 188.411 134.094C186.552 133.147 185.055 131.863 183.918 130.241C182.794 128.608 182.113 126.773 181.876 124.737H189.458C189.754 126.063 190.375 127.093 191.322 127.827C192.269 128.549 193.441 128.91 194.838 128.91C197.205 128.91 199.005 127.88 200.236 125.82C201.467 123.749 202.088 120.914 202.1 117.315H201.852C201.307 118.381 200.573 119.298 199.65 120.067C198.727 120.825 197.667 121.411 196.472 121.825C195.288 122.24 194.027 122.447 192.69 122.447C190.547 122.447 188.635 121.944 186.955 120.938C185.274 119.931 183.948 118.546 182.977 116.783C182.007 115.019 181.521 113.007 181.521 110.746C181.509 108.307 182.072 106.135 183.208 104.229C184.344 102.324 185.931 100.832 187.967 99.755C190.014 98.666 192.394 98.1274 195.104 98.1392ZM195.158 104.176C193.962 104.176 192.897 104.46 191.962 105.028C191.038 105.597 190.304 106.36 189.76 107.319C189.227 108.278 188.967 109.349 188.979 110.533C188.979 111.728 189.239 112.805 189.76 113.764C190.293 114.711 191.015 115.469 191.926 116.037C192.849 116.593 193.903 116.871 195.087 116.871C195.974 116.871 196.797 116.706 197.555 116.374C198.312 116.043 198.969 115.587 199.526 115.007C200.094 114.415 200.538 113.735 200.857 112.965C201.177 112.196 201.337 111.379 201.337 110.515C201.325 109.367 201.053 108.313 200.52 107.354C199.987 106.396 199.253 105.626 198.318 105.046C197.383 104.466 196.33 104.176 195.158 104.176Z" fill="black"/>
<path d="M263.768 98.6364V135H256.08V105.934H255.866L247.539 111.154V104.336L256.541 98.6364H263.768ZM286.668 135.799C283.614 135.787 280.986 135.036 278.785 133.544C276.595 132.053 274.908 129.892 273.724 127.063C272.552 124.234 271.972 120.831 271.984 116.854C271.984 112.888 272.57 109.509 273.742 106.715C274.926 103.922 276.613 101.797 278.802 100.341C281.004 98.8731 283.626 98.1392 286.668 98.1392C289.71 98.1392 292.326 98.8731 294.516 100.341C296.718 101.809 298.411 103.939 299.594 106.733C300.778 109.515 301.364 112.888 301.352 116.854C301.352 120.843 300.76 124.252 299.577 127.081C298.405 129.91 296.724 132.07 294.534 133.562C292.344 135.053 289.722 135.799 286.668 135.799ZM286.668 129.425C288.751 129.425 290.415 128.377 291.657 126.282C292.9 124.187 293.516 121.044 293.504 116.854C293.504 114.096 293.22 111.799 292.652 109.964C292.095 108.13 291.302 106.751 290.273 105.827C289.255 104.904 288.053 104.442 286.668 104.442C284.597 104.442 282.939 105.478 281.697 107.55C280.454 109.621 279.826 112.723 279.814 116.854C279.814 119.647 280.093 121.979 280.649 123.849C281.217 125.708 282.016 127.105 283.046 128.04C284.076 128.963 285.283 129.425 286.668 129.425Z" fill="black"/>
<path d="M341.768 98.6364V135H334.08V105.934H333.866L325.539 111.154V104.336L334.541 98.6364H341.768ZM366.231 98.6364V135H358.542V105.934H358.329L350.002 111.154V104.336L359.004 98.6364H366.231Z" fill="black"/>
<path d="M419.768 98.6364V135H412.08V105.934H411.866L403.539 111.154V104.336L412.541 98.6364H419.768ZM428.41 135V129.46L441.354 117.475C442.455 116.41 443.378 115.451 444.124 114.599C444.882 113.746 445.456 112.912 445.846 112.095C446.237 111.267 446.432 110.373 446.432 109.414C446.432 108.349 446.19 107.431 445.704 106.662C445.219 105.881 444.556 105.283 443.716 104.869C442.875 104.442 441.922 104.229 440.857 104.229C439.744 104.229 438.774 104.454 437.945 104.904C437.117 105.354 436.477 105.999 436.028 106.839C435.578 107.68 435.353 108.68 435.353 109.84H428.055C428.055 107.461 428.594 105.395 429.671 103.643C430.748 101.892 432.257 100.536 434.199 99.5774C436.14 98.6186 438.377 98.1392 440.91 98.1392C443.515 98.1392 445.781 98.6009 447.711 99.5241C449.652 100.436 451.161 101.702 452.238 103.324C453.316 104.946 453.854 106.804 453.854 108.899C453.854 110.272 453.582 111.628 453.037 112.965C452.505 114.303 451.552 115.788 450.179 117.422C448.806 119.044 446.87 120.991 444.373 123.263L439.064 128.466V128.714H454.334V135H428.41Z" fill="black"/>
<rect x="0.5" y="156.5" width="77" height="77" fill="white" stroke="black"/>
<rect x="78.5" y="156.5" width="77" height="77" fill="white" stroke="black"/>
<rect x="156.5" y="156.5" width="77" height="77" fill="white" stroke="black"/>
<rect x="234.5" y="156.5" width="77" height="77" fill="white" stroke="black"/>
<rect x="312.5" y="156.5" width="77" height="77" fill="white" stroke="black"/>
<rect x="390.5" y="156.5" width="77" height="77" fill="white" stroke="black"/>
<path d="M27.7678 176.636V213H20.0795V183.934H19.8665L11.5391 189.154V182.336L20.5412 176.636H27.7678ZM49.8514 213.497C47.1999 213.497 44.8384 213.041 42.7669 212.13C40.7072 211.207 39.0796 209.94 37.8841 208.33C36.7003 206.709 36.0907 204.838 36.0552 202.719H43.7967C43.844 203.607 44.1341 204.388 44.6667 205.063C45.2112 205.726 45.9333 206.241 46.8329 206.608C47.7325 206.975 48.7446 207.158 49.8691 207.158C51.041 207.158 52.0768 206.951 52.9764 206.537C53.876 206.123 54.5803 205.549 55.0893 204.815C55.5983 204.081 55.8528 203.234 55.8528 202.276C55.8528 201.305 55.5806 200.447 55.036 199.701C54.5034 198.943 53.734 198.352 52.7278 197.925C51.7335 197.499 50.5498 197.286 49.1767 197.286H45.7853V191.64H49.1767C50.3367 191.64 51.3606 191.439 52.2484 191.036C53.148 190.634 53.8464 190.077 54.3436 189.367C54.8407 188.645 55.0893 187.805 55.0893 186.846C55.0893 185.934 54.8703 185.135 54.4324 184.449C54.0062 183.75 53.4025 183.206 52.6213 182.815C51.8519 182.425 50.9522 182.229 49.9224 182.229C48.8807 182.229 47.9279 182.419 47.0637 182.798C46.1996 183.165 45.5072 183.691 44.9863 184.378C44.4655 185.064 44.1873 185.869 44.1518 186.793H36.7832C36.8187 184.697 37.4165 182.851 38.5765 181.253C39.7366 179.655 41.2991 178.406 43.264 177.506C45.2408 176.595 47.4721 176.139 49.9579 176.139C52.4674 176.139 54.6632 176.595 56.5453 177.506C58.4274 178.418 59.8893 179.649 60.9309 181.2C61.9844 182.738 62.5053 184.467 62.4934 186.384C62.5053 188.42 61.872 190.119 60.5936 191.48C59.327 192.841 57.6757 193.705 55.6397 194.072V194.357C58.3149 194.7 60.3509 195.629 61.7477 197.144C63.1563 198.647 63.8547 200.53 63.8429 202.79C63.8547 204.862 63.2569 206.703 62.0495 208.312C60.854 209.922 59.2027 211.189 57.0957 212.112C54.9887 213.036 52.5739 213.497 49.8514 213.497Z" fill="black"/>
<path d="M106.768 176.636V213H99.0795V183.934H98.8665L90.5391 189.154V182.336L99.5412 176.636H106.768ZM114.86 206.608V200.553L130.041 176.636H135.261V185.017H132.172L122.601 200.163V200.447H144.175V206.608H114.86ZM132.314 213V204.761L132.456 202.08V176.636H139.665V213H132.314Z" fill="black"/>
<path d="M184.768 176.636V213H177.08V183.934H176.866L168.539 189.154V182.336L177.541 176.636H184.768ZM206.692 213.497C204.182 213.497 201.945 213.036 199.98 212.112C198.027 211.189 196.476 209.916 195.328 208.295C194.18 206.673 193.582 204.815 193.535 202.719H200.992C201.075 204.128 201.667 205.27 202.768 206.146C203.868 207.022 205.176 207.46 206.692 207.46C207.899 207.46 208.964 207.194 209.888 206.661C210.823 206.117 211.551 205.365 212.072 204.406C212.604 203.436 212.871 202.323 212.871 201.068C212.871 199.79 212.598 198.665 212.054 197.695C211.521 196.724 210.781 195.966 209.834 195.422C208.887 194.877 207.804 194.599 206.585 194.587C205.52 194.587 204.484 194.806 203.478 195.244C202.483 195.682 201.708 196.28 201.152 197.038L194.316 195.812L196.038 176.636H218.268V182.922H202.377L201.436 192.031H201.649C202.288 191.131 203.253 190.385 204.543 189.793C205.833 189.201 207.278 188.906 208.876 188.906C211.065 188.906 213.019 189.42 214.735 190.45C216.451 191.48 217.807 192.895 218.801 194.694C219.795 196.481 220.287 198.541 220.275 200.873C220.287 203.323 219.718 205.501 218.57 207.407C217.434 209.301 215.842 210.792 213.794 211.881C211.758 212.959 209.39 213.497 206.692 213.497Z" fill="black"/>
<path d="M263.768 176.636V213H256.08V183.934H255.866L247.539 189.154V182.336L256.541 176.636H263.768ZM286.366 213.497C284.496 213.485 282.691 213.172 280.951 212.556C279.223 211.941 277.672 210.94 276.299 209.555C274.926 208.17 273.837 206.336 273.032 204.051C272.239 201.767 271.842 198.961 271.842 195.635C271.854 192.581 272.203 189.853 272.89 187.45C273.588 185.035 274.582 182.987 275.873 181.306C277.175 179.625 278.731 178.347 280.542 177.471C282.354 176.583 284.384 176.139 286.633 176.139C289.059 176.139 291.202 176.613 293.06 177.56C294.919 178.495 296.41 179.767 297.535 181.377C298.671 182.987 299.358 184.792 299.594 186.793H292.013C291.717 185.526 291.095 184.532 290.148 183.81C289.201 183.088 288.029 182.727 286.633 182.727C284.265 182.727 282.466 183.756 281.235 185.816C280.016 187.876 279.394 190.675 279.371 194.214H279.619C280.164 193.137 280.898 192.22 281.821 191.462C282.756 190.693 283.815 190.107 284.999 189.705C286.195 189.29 287.455 189.083 288.781 189.083C290.935 189.083 292.853 189.592 294.534 190.61C296.215 191.616 297.541 193.001 298.511 194.765C299.482 196.529 299.967 198.547 299.967 200.82C299.967 203.282 299.393 205.472 298.245 207.389C297.108 209.307 295.516 210.81 293.469 211.899C291.433 212.976 289.065 213.509 286.366 213.497ZM286.331 207.46C287.515 207.46 288.574 207.176 289.509 206.608C290.444 206.04 291.178 205.27 291.711 204.3C292.243 203.329 292.51 202.24 292.51 201.033C292.51 199.825 292.243 198.742 291.711 197.783C291.19 196.825 290.468 196.061 289.545 195.493C288.621 194.925 287.568 194.641 286.384 194.641C285.496 194.641 284.674 194.806 283.916 195.138C283.17 195.469 282.513 195.931 281.945 196.523C281.389 197.115 280.951 197.801 280.631 198.582C280.312 199.352 280.152 200.174 280.152 201.05C280.152 202.222 280.418 203.294 280.951 204.264C281.495 205.235 282.229 206.01 283.153 206.59C284.088 207.17 285.147 207.46 286.331 207.46Z" fill="black"/>
<path d="M341.768 176.636V213H334.08V183.934H333.866L325.539 189.154V182.336L334.541 176.636H341.768ZM351.849 213L366.923 183.17V182.922H349.363V176.636H374.878V183.011L359.785 213H351.849Z" fill="black"/>
<path d="M419.768 176.636V213H412.08V183.934H411.866L403.539 189.154V182.336L412.541 176.636H419.768ZM441.976 213.497C439.241 213.497 436.809 213.053 434.678 212.165C432.559 211.266 430.896 210.041 429.689 208.49C428.481 206.939 427.878 205.182 427.878 203.217C427.878 201.701 428.221 200.311 428.907 199.044C429.606 197.766 430.553 196.706 431.748 195.866C432.944 195.013 434.282 194.469 435.761 194.232V193.984C433.82 193.593 432.246 192.652 431.038 191.161C429.831 189.657 429.227 187.911 429.227 185.923C429.227 184.04 429.778 182.366 430.878 180.898C431.979 179.418 433.488 178.258 435.406 177.418C437.336 176.565 439.525 176.139 441.976 176.139C444.426 176.139 446.61 176.565 448.528 177.418C450.457 178.27 451.972 179.436 453.073 180.915C454.174 182.383 454.73 184.052 454.742 185.923C454.73 187.923 454.115 189.669 452.895 191.161C451.676 192.652 450.114 193.593 448.208 193.984V194.232C449.664 194.469 450.984 195.013 452.167 195.866C453.363 196.706 454.31 197.766 455.008 199.044C455.719 200.311 456.08 201.701 456.091 203.217C456.08 205.182 455.47 206.939 454.263 208.49C453.055 210.041 451.386 211.266 449.256 212.165C447.137 213.053 444.71 213.497 441.976 213.497ZM441.976 207.851C443.195 207.851 444.26 207.632 445.172 207.194C446.083 206.744 446.793 206.129 447.302 205.347C447.823 204.554 448.084 203.643 448.084 202.613C448.084 201.559 447.817 200.63 447.285 199.825C446.752 199.009 446.03 198.369 445.118 197.908C444.207 197.434 443.159 197.197 441.976 197.197C440.804 197.197 439.756 197.434 438.833 197.908C437.91 198.369 437.182 199.009 436.649 199.825C436.128 200.63 435.868 201.559 435.868 202.613C435.868 203.643 436.122 204.554 436.631 205.347C437.14 206.129 437.856 206.744 438.78 207.194C439.703 207.632 440.768 207.851 441.976 207.851ZM441.976 191.604C442.994 191.604 443.899 191.397 444.692 190.983C445.485 190.569 446.107 189.995 446.557 189.261C447.006 188.527 447.231 187.68 447.231 186.722C447.231 185.775 447.006 184.946 446.557 184.236C446.107 183.514 445.491 182.951 444.71 182.549C443.929 182.135 443.017 181.928 441.976 181.928C440.946 181.928 440.034 182.135 439.241 182.549C438.448 182.951 437.827 183.514 437.377 184.236C436.939 184.946 436.72 185.775 436.72 186.722C436.72 187.68 436.945 188.527 437.395 189.261C437.845 189.995 438.466 190.569 439.259 190.983C440.052 191.397 440.958 191.604 441.976 191.604Z" fill="black"/>
<rect x="0.5" y="234.5" width="77" height="77" fill="white" stroke="black"/>
<rect x="78.5" y="234.5" width="77" height="77" fill="white" stroke="black"/>
<rect x="156.5" y="234.5" width="77" height="77" fill="white" stroke="black"/>
<rect x="234.5" y="234.5" width="77" height="77" fill="white" stroke="black"/>
<rect x="312.5" y="234.5" width="77" height="77" fill="white" stroke="black"/>
<rect x="390.5" y="234.5" width="77" height="77" fill="white" stroke="black"/>
<path d="M27.7678 254.636V291H20.0795V261.934H19.8665L11.5391 267.154V260.336L20.5412 254.636H27.7678ZM49.5673 254.139C51.4376 254.139 53.2368 254.453 54.965 255.08C56.7051 255.708 58.2557 256.708 59.617 258.081C60.9901 259.454 62.0732 261.277 62.8663 263.55C63.6712 265.811 64.0796 268.586 64.0914 271.877C64.0914 274.967 63.7422 277.725 63.0439 280.151C62.3573 282.566 61.3689 284.62 60.0787 286.312C58.7884 288.005 57.2318 289.295 55.4089 290.183C53.586 291.059 51.55 291.497 49.301 291.497C46.8743 291.497 44.7318 291.03 42.8734 290.094C41.015 289.147 39.5176 287.863 38.3812 286.241C37.2567 284.608 36.5761 282.773 36.3393 280.737H43.921C44.2169 282.063 44.8384 283.093 45.7853 283.827C46.7323 284.549 47.9042 284.91 49.301 284.91C51.6684 284.91 53.4676 283.88 54.6987 281.82C55.9297 279.749 56.5512 276.914 56.563 273.315H56.3145C55.7699 274.381 55.036 275.298 54.1127 276.067C53.1895 276.825 52.13 277.411 50.9345 277.825C49.7508 278.24 48.4901 278.447 47.1525 278.447C45.01 278.447 43.0983 277.944 41.4174 276.938C39.7366 275.931 38.4108 274.546 37.4402 272.783C36.4695 271.019 35.9842 269.007 35.9842 266.746C35.9724 264.307 36.5346 262.135 37.671 260.229C38.8074 258.324 40.3935 256.832 42.4295 255.755C44.4773 254.666 46.8566 254.127 49.5673 254.139ZM49.6206 260.176C48.425 260.176 47.3597 260.46 46.4245 261.028C45.5012 261.597 44.7673 262.36 44.2228 263.319C43.6902 264.278 43.4297 265.349 43.4416 266.533C43.4416 267.728 43.702 268.805 44.2228 269.764C44.7555 270.711 45.4776 271.469 46.389 272.037C47.3123 272.593 48.3658 272.871 49.5495 272.871C50.4373 272.871 51.26 272.706 52.0176 272.374C52.7752 272.043 53.4321 271.587 53.9885 271.007C54.5566 270.415 55.0005 269.735 55.3201 268.965C55.6397 268.196 55.7995 267.379 55.7995 266.515C55.7877 265.367 55.5154 264.313 54.9828 263.354C54.4501 262.396 53.7162 261.626 52.7811 261.046C51.8459 260.466 50.7924 260.176 49.6206 260.176Z" fill="black"/>
<path d="M88.9474 291V285.46L101.891 273.475C102.992 272.41 103.915 271.451 104.661 270.599C105.419 269.746 105.993 268.912 106.384 268.095C106.774 267.267 106.969 266.373 106.969 265.414C106.969 264.349 106.727 263.431 106.241 262.662C105.756 261.881 105.093 261.283 104.253 260.869C103.412 260.442 102.46 260.229 101.394 260.229C100.281 260.229 99.3108 260.454 98.4822 260.904C97.6536 261.354 97.0144 261.999 96.5646 262.839C96.1148 263.68 95.8899 264.68 95.8899 265.84H88.5923C88.5923 263.461 89.1309 261.395 90.2081 259.643C91.2853 257.892 92.7945 256.536 94.7358 255.577C96.6771 254.619 98.9143 254.139 101.447 254.139C104.052 254.139 106.318 254.601 108.248 255.524C110.189 256.436 111.698 257.702 112.776 259.324C113.853 260.946 114.391 262.804 114.391 264.899C114.391 266.272 114.119 267.628 113.575 268.965C113.042 270.303 112.089 271.788 110.716 273.422C109.343 275.044 107.407 276.991 104.91 279.263L99.6009 284.466V284.714H114.871V291H88.9474ZM134.699 291.799C131.645 291.787 129.018 291.036 126.816 289.544C124.626 288.053 122.939 285.892 121.756 283.063C120.584 280.234 120.004 276.831 120.015 272.854C120.015 268.888 120.601 265.509 121.773 262.715C122.957 259.922 124.644 257.797 126.834 256.341C129.035 254.873 131.657 254.139 134.699 254.139C137.742 254.139 140.358 254.873 142.547 256.341C144.749 257.809 146.442 259.939 147.626 262.733C148.809 265.515 149.395 268.888 149.383 272.854C149.383 276.843 148.791 280.252 147.608 283.081C146.436 285.91 144.755 288.07 142.565 289.562C140.375 291.053 137.753 291.799 134.699 291.799ZM134.699 285.425C136.783 285.425 138.446 284.377 139.689 282.282C140.932 280.187 141.547 277.044 141.535 272.854C141.535 270.096 141.251 267.799 140.683 265.964C140.127 264.13 139.334 262.751 138.304 261.827C137.286 260.904 136.084 260.442 134.699 260.442C132.628 260.442 130.971 261.478 129.728 263.55C128.485 265.621 127.858 268.723 127.846 272.854C127.846 275.647 128.124 277.979 128.68 279.849C129.248 281.708 130.047 283.105 131.077 284.04C132.107 284.963 133.314 285.425 134.699 285.425Z" fill="black"/>
<path d="M166.947 291V285.46L179.891 273.475C180.992 272.41 181.915 271.451 182.661 270.599C183.419 269.746 183.993 268.912 184.384 268.095C184.774 267.267 184.969 266.373 184.969 265.414C184.969 264.349 184.727 263.431 184.241 262.662C183.756 261.881 183.093 261.283 182.253 260.869C181.412 260.442 180.46 260.229 179.394 260.229C178.281 260.229 177.311 260.454 176.482 260.904C175.654 261.354 175.014 261.999 174.565 262.839C174.115 263.68 173.89 264.68 173.89 265.84H166.592C166.592 263.461 167.131 261.395 168.208 259.643C169.285 257.892 170.795 256.536 172.736 255.577C174.677 254.619 176.914 254.139 179.447 254.139C182.052 254.139 184.318 254.601 186.248 255.524C188.189 256.436 189.698 257.702 190.776 259.324C191.853 260.946 192.391 262.804 192.391 264.899C192.391 266.272 192.119 267.628 191.575 268.965C191.042 270.303 190.089 271.788 188.716 273.422C187.343 275.044 185.407 276.991 182.91 279.263L177.601 284.466V284.714H192.871V291H166.947ZM214.262 254.636V291H206.574V261.934H206.361L198.033 267.154V260.336L207.035 254.636H214.262Z" fill="black"/>
<path d="M245.947 291V285.46L258.891 273.475C259.992 272.41 260.915 271.451 261.661 270.599C262.419 269.746 262.993 268.912 263.384 268.095C263.774 267.267 263.969 266.373 263.969 265.414C263.969 264.349 263.727 263.431 263.241 262.662C262.756 261.881 262.093 261.283 261.253 260.869C260.412 260.442 259.46 260.229 258.394 260.229C257.281 260.229 256.311 260.454 255.482 260.904C254.654 261.354 254.014 261.999 253.565 262.839C253.115 263.68 252.89 264.68 252.89 265.84H245.592C245.592 263.461 246.131 261.395 247.208 259.643C248.285 257.892 249.795 256.536 251.736 255.577C253.677 254.619 255.914 254.139 258.447 254.139C261.052 254.139 263.318 254.601 265.248 255.524C267.189 256.436 268.698 257.702 269.776 259.324C270.853 260.946 271.391 262.804 271.391 264.899C271.391 266.272 271.119 267.628 270.575 268.965C270.042 270.303 269.089 271.788 267.716 273.422C266.343 275.044 264.407 276.991 261.91 279.263L256.601 284.466V284.714H271.871V291H245.947ZM277.442 291V285.46L290.385 273.475C291.486 272.41 292.41 271.451 293.155 270.599C293.913 269.746 294.487 268.912 294.878 268.095C295.268 267.267 295.464 266.373 295.464 265.414C295.464 264.349 295.221 263.431 294.736 262.662C294.25 261.881 293.587 261.283 292.747 260.869C291.907 260.442 290.954 260.229 289.888 260.229C288.776 260.229 287.805 260.454 286.976 260.904C286.148 261.354 285.509 261.999 285.059 262.839C284.609 263.68 284.384 264.68 284.384 265.84H277.086C277.086 263.461 277.625 261.395 278.702 259.643C279.779 257.892 281.289 256.536 283.23 255.577C285.171 254.619 287.408 254.139 289.942 254.139C292.546 254.139 294.813 254.601 296.742 255.524C298.683 256.436 300.193 257.702 301.27 259.324C302.347 260.946 302.885 262.804 302.885 264.899C302.885 266.272 302.613 267.628 302.069 268.965C301.536 270.303 300.583 271.788 299.21 273.422C297.837 275.044 295.902 276.991 293.404 279.263L288.095 284.466V284.714H303.365V291H277.442Z" fill="black"/>
<path d="M323.947 291V285.46L336.891 273.475C337.992 272.41 338.915 271.451 339.661 270.599C340.419 269.746 340.993 268.912 341.384 268.095C341.774 267.267 341.969 266.373 341.969 265.414C341.969 264.349 341.727 263.431 341.241 262.662C340.756 261.881 340.093 261.283 339.253 260.869C338.412 260.442 337.46 260.229 336.394 260.229C335.281 260.229 334.311 260.454 333.482 260.904C332.654 261.354 332.014 261.999 331.565 262.839C331.115 263.68 330.89 264.68 330.89 265.84H323.592C323.592 263.461 324.131 261.395 325.208 259.643C326.285 257.892 327.795 256.536 329.736 255.577C331.677 254.619 333.914 254.139 336.447 254.139C339.052 254.139 341.318 254.601 343.248 255.524C345.189 256.436 346.698 257.702 347.776 259.324C348.853 260.946 349.391 262.804 349.391 264.899C349.391 266.272 349.119 267.628 348.575 268.965C348.042 270.303 347.089 271.788 345.716 273.422C344.343 275.044 342.407 276.991 339.91 279.263L334.601 284.466V284.714H349.871V291H323.947ZM368.883 291.497C366.231 291.497 363.87 291.041 361.798 290.13C359.738 289.207 358.111 287.94 356.915 286.33C355.732 284.709 355.122 282.838 355.086 280.719H362.828C362.875 281.607 363.165 282.388 363.698 283.063C364.242 283.726 364.965 284.241 365.864 284.608C366.764 284.975 367.776 285.158 368.9 285.158C370.072 285.158 371.108 284.951 372.008 284.537C372.907 284.123 373.612 283.549 374.121 282.815C374.63 282.081 374.884 281.234 374.884 280.276C374.884 279.305 374.612 278.447 374.067 277.701C373.535 276.943 372.765 276.352 371.759 275.925C370.765 275.499 369.581 275.286 368.208 275.286H364.817V269.64H368.208C369.368 269.64 370.392 269.439 371.28 269.036C372.179 268.634 372.878 268.077 373.375 267.367C373.872 266.645 374.121 265.805 374.121 264.846C374.121 263.934 373.902 263.135 373.464 262.449C373.037 261.75 372.434 261.206 371.653 260.815C370.883 260.425 369.983 260.229 368.954 260.229C367.912 260.229 366.959 260.419 366.095 260.798C365.231 261.165 364.538 261.691 364.018 262.378C363.497 263.064 363.219 263.869 363.183 264.793H355.814C355.85 262.697 356.448 260.851 357.608 259.253C358.768 257.655 360.33 256.406 362.295 255.506C364.272 254.595 366.503 254.139 368.989 254.139C371.499 254.139 373.694 254.595 375.577 255.506C377.459 256.418 378.921 257.649 379.962 259.2C381.016 260.738 381.537 262.467 381.525 264.384C381.537 266.42 380.903 268.119 379.625 269.48C378.358 270.841 376.707 271.705 374.671 272.072V272.357C377.346 272.7 379.382 273.629 380.779 275.144C382.188 276.647 382.886 278.53 382.874 280.79C382.886 282.862 382.288 284.703 381.081 286.312C379.885 287.922 378.234 289.189 376.127 290.112C374.02 291.036 371.605 291.497 368.883 291.497Z" fill="black"/>
<path d="M401.947 291V285.46L414.891 273.475C415.992 272.41 416.915 271.451 417.661 270.599C418.419 269.746 418.993 268.912 419.384 268.095C419.774 267.267 419.969 266.373 419.969 265.414C419.969 264.349 419.727 263.431 419.241 262.662C418.756 261.881 418.093 261.283 417.253 260.869C416.412 260.442 415.46 260.229 414.394 260.229C413.281 260.229 412.311 260.454 411.482 260.904C410.654 261.354 410.014 261.999 409.565 262.839C409.115 263.68 408.89 264.68 408.89 265.84H401.592C401.592 263.461 402.131 261.395 403.208 259.643C404.285 257.892 405.795 256.536 407.736 255.577C409.677 254.619 411.914 254.139 414.447 254.139C417.052 254.139 419.318 254.601 421.248 255.524C423.189 256.436 424.698 257.702 425.776 259.324C426.853 260.946 427.391 262.804 427.391 264.899C427.391 266.272 427.119 267.628 426.575 268.965C426.042 270.303 425.089 271.788 423.716 273.422C422.343 275.044 420.407 276.991 417.91 279.263L412.601 284.466V284.714H427.871V291H401.947ZM432.11 284.608V278.553L447.291 254.636H452.511V263.017H449.422L439.851 278.163V278.447H461.425V284.608H432.11ZM449.564 291V282.761L449.706 280.08V254.636H456.915V291H449.564Z" fill="black"/>
<rect x="0.5" y="312.5" width="77" height="77" fill="white" stroke="black"/>
<rect x="78.5" y="312.5" width="77" height="77" fill="white" stroke="black"/>
<rect x="156.5" y="312.5" width="77" height="77" fill="white" stroke="black"/>
<rect x="234.5" y="312.5" width="77" height="77" fill="white" stroke="black"/>
<rect x="312.5" y="312.5" width="77" height="77" fill="white" stroke="black"/>
<rect x="390.5" y="312.5" width="77" height="77" fill="white" stroke="black"/>
<path d="M11.9474 369V363.46L24.8913 351.475C25.9922 350.41 26.9155 349.451 27.6612 348.599C28.4188 347.746 28.9929 346.912 29.3835 346.095C29.7741 345.267 29.9695 344.373 29.9695 343.414C29.9695 342.349 29.7268 341.431 29.2415 340.662C28.7562 339.881 28.0933 339.283 27.2528 338.869C26.4124 338.442 25.4595 338.229 24.3942 338.229C23.2815 338.229 22.3108 338.454 21.4822 338.904C20.6536 339.354 20.0144 339.999 19.5646 340.839C19.1148 341.68 18.8899 342.68 18.8899 343.84H11.5923C11.5923 341.461 12.1309 339.395 13.2081 337.643C14.2853 335.892 15.7945 334.536 17.7358 333.577C19.6771 332.619 21.9143 332.139 24.4474 332.139C27.0516 332.139 29.3184 332.601 31.2479 333.524C33.1892 334.436 34.6984 335.702 35.7756 337.324C36.8527 338.946 37.3913 340.804 37.3913 342.899C37.3913 344.272 37.1191 345.628 36.5746 346.965C36.0419 348.303 35.089 349.788 33.7159 351.422C32.3428 353.044 30.4074 354.991 27.9098 357.263L22.6009 362.466V362.714H37.8707V369H11.9474ZM56.7228 369.497C54.2134 369.497 51.9761 369.036 50.0112 368.112C48.0581 367.189 46.5074 365.916 45.3592 364.295C44.211 362.673 43.6132 360.815 43.5659 358.719H51.0233C51.1061 360.128 51.698 361.27 52.7988 362.146C53.8997 363.022 55.2077 363.46 56.7228 363.46C57.9302 363.46 58.9956 363.194 59.9189 362.661C60.854 362.117 61.582 361.365 62.1028 360.406C62.6355 359.436 62.9018 358.323 62.9018 357.068C62.9018 355.79 62.6296 354.665 62.085 353.695C61.5524 352.724 60.8126 351.966 59.8656 351.422C58.9186 350.877 57.8355 350.599 56.6163 350.587C55.551 350.587 54.5152 350.806 53.5091 351.244C52.5147 351.682 51.7394 352.28 51.1831 353.038L44.3471 351.812L46.0694 332.636H68.2995V338.922H52.4082L51.4672 348.031H51.6802C52.3194 347.131 53.2842 346.385 54.5744 345.793C55.8646 345.201 57.3088 344.906 58.9068 344.906C61.0967 344.906 63.0498 345.42 64.7662 346.45C66.4825 347.48 67.8379 348.895 68.8322 350.694C69.8265 352.481 70.3178 354.541 70.3059 356.873C70.3178 359.323 69.7496 361.501 68.6014 363.407C67.465 365.301 65.8729 366.792 63.8251 367.881C61.7891 368.959 59.4217 369.497 56.7228 369.497Z" fill="black"/>
<path d="M90.9474 369V363.46L103.891 351.475C104.992 350.41 105.915 349.451 106.661 348.599C107.419 347.746 107.993 346.912 108.384 346.095C108.774 345.267 108.969 344.373 108.969 343.414C108.969 342.349 108.727 341.431 108.241 340.662C107.756 339.881 107.093 339.283 106.253 338.869C105.412 338.442 104.46 338.229 103.394 338.229C102.281 338.229 101.311 338.454 100.482 338.904C99.6536 339.354 99.0144 339.999 98.5646 340.839C98.1148 341.68 97.8899 342.68 97.8899 343.84H90.5923C90.5923 341.461 91.1309 339.395 92.2081 337.643C93.2853 335.892 94.7945 334.536 96.7358 333.577C98.6771 332.619 100.914 332.139 103.447 332.139C106.052 332.139 108.318 332.601 110.248 333.524C112.189 334.436 113.698 335.702 114.776 337.324C115.853 338.946 116.391 340.804 116.391 342.899C116.391 344.272 116.119 345.628 115.575 346.965C115.042 348.303 114.089 349.788 112.716 351.422C111.343 353.044 109.407 354.991 106.91 357.263L101.601 362.466V362.714H116.871V369H90.9474ZM136.398 369.497C134.527 369.485 132.722 369.172 130.982 368.556C129.254 367.941 127.703 366.94 126.33 365.555C124.957 364.17 123.868 362.336 123.063 360.051C122.27 357.767 121.873 354.961 121.873 351.635C121.885 348.581 122.234 345.853 122.921 343.45C123.619 341.035 124.614 338.987 125.904 337.306C127.206 335.625 128.763 334.347 130.574 333.471C132.385 332.583 134.415 332.139 136.664 332.139C139.09 332.139 141.233 332.613 143.091 333.56C144.95 334.495 146.441 335.767 147.566 337.377C148.702 338.987 149.389 340.792 149.626 342.793H142.044C141.748 341.526 141.126 340.532 140.18 339.81C139.233 339.088 138.061 338.727 136.664 338.727C134.296 338.727 132.497 339.756 131.266 341.816C130.047 343.876 129.425 346.675 129.402 350.214H129.65C130.195 349.137 130.929 348.22 131.852 347.462C132.787 346.693 133.847 346.107 135.03 345.705C136.226 345.29 137.487 345.083 138.812 345.083C140.967 345.083 142.884 345.592 144.565 346.61C146.246 347.616 147.572 349.001 148.542 350.765C149.513 352.529 149.998 354.547 149.998 356.82C149.998 359.282 149.424 361.472 148.276 363.389C147.14 365.307 145.548 366.81 143.5 367.899C141.464 368.976 139.096 369.509 136.398 369.497ZM136.362 363.46C137.546 363.46 138.605 363.176 139.54 362.608C140.475 362.04 141.209 361.27 141.742 360.3C142.275 359.329 142.541 358.24 142.541 357.033C142.541 355.825 142.275 354.742 141.742 353.783C141.221 352.825 140.499 352.061 139.576 351.493C138.653 350.925 137.599 350.641 136.415 350.641C135.528 350.641 134.705 350.806 133.947 351.138C133.202 351.469 132.545 351.931 131.976 352.523C131.42 353.115 130.982 353.801 130.662 354.582C130.343 355.352 130.183 356.174 130.183 357.05C130.183 358.222 130.449 359.294 130.982 360.264C131.527 361.235 132.26 362.01 133.184 362.59C134.119 363.17 135.178 363.46 136.362 363.46Z" fill="black"/>
<path d="M168.947 369V363.46L181.891 351.475C182.992 350.41 183.915 349.451 184.661 348.599C185.419 347.746 185.993 346.912 186.384 346.095C186.774 345.267 186.969 344.373 186.969 343.414C186.969 342.349 186.727 341.431 186.241 340.662C185.756 339.881 185.093 339.283 184.253 338.869C183.412 338.442 182.46 338.229 181.394 338.229C180.281 338.229 179.311 338.454 178.482 338.904C177.654 339.354 177.014 339.999 176.565 340.839C176.115 341.68 175.89 342.68 175.89 343.84H168.592C168.592 341.461 169.131 339.395 170.208 337.643C171.285 335.892 172.795 334.536 174.736 333.577C176.677 332.619 178.914 332.139 181.447 332.139C184.052 332.139 186.318 332.601 188.248 333.524C190.189 334.436 191.698 335.702 192.776 337.324C193.853 338.946 194.391 340.804 194.391 342.899C194.391 344.272 194.119 345.628 193.575 346.965C193.042 348.303 192.089 349.788 190.716 351.422C189.343 353.044 187.407 354.991 184.91 357.263L179.601 362.466V362.714H194.871V369H168.947ZM201.88 369L216.954 339.17V338.922H199.394V332.636H224.909V339.011L209.817 369H201.88Z" fill="black"/>
<path d="M242.947 369V363.46L255.891 351.475C256.992 350.41 257.915 349.451 258.661 348.599C259.419 347.746 259.993 346.912 260.384 346.095C260.774 345.267 260.969 344.373 260.969 343.414C260.969 342.349 260.727 341.431 260.241 340.662C259.756 339.881 259.093 339.283 258.253 338.869C257.412 338.442 256.46 338.229 255.394 338.229C254.281 338.229 253.311 338.454 252.482 338.904C251.654 339.354 251.014 339.999 250.565 340.839C250.115 341.68 249.89 342.68 249.89 343.84H242.592C242.592 341.461 243.131 339.395 244.208 337.643C245.285 335.892 246.795 334.536 248.736 333.577C250.677 332.619 252.914 332.139 255.447 332.139C258.052 332.139 260.318 332.601 262.248 333.524C264.189 334.436 265.698 335.702 266.776 337.324C267.853 338.946 268.391 340.804 268.391 342.899C268.391 344.272 268.119 345.628 267.575 346.965C267.042 348.303 266.089 349.788 264.716 351.422C263.343 353.044 261.407 354.991 258.91 357.263L253.601 362.466V362.714H268.871V369H242.947ZM288.007 369.497C285.273 369.497 282.84 369.053 280.709 368.165C278.59 367.266 276.927 366.041 275.72 364.49C274.513 362.939 273.909 361.182 273.909 359.217C273.909 357.701 274.252 356.311 274.939 355.044C275.637 353.766 276.584 352.706 277.78 351.866C278.975 351.013 280.313 350.469 281.792 350.232V349.984C279.851 349.593 278.277 348.652 277.069 347.161C275.862 345.657 275.258 343.911 275.258 341.923C275.258 340.04 275.809 338.366 276.91 336.898C278.01 335.418 279.52 334.258 281.437 333.418C283.367 332.565 285.557 332.139 288.007 332.139C290.457 332.139 292.641 332.565 294.559 333.418C296.488 334.27 298.003 335.436 299.104 336.915C300.205 338.383 300.761 340.052 300.773 341.923C300.761 343.923 300.146 345.669 298.927 347.161C297.707 348.652 296.145 349.593 294.239 349.984V350.232C295.695 350.469 297.015 351.013 298.199 351.866C299.394 352.706 300.341 353.766 301.04 355.044C301.75 356.311 302.111 357.701 302.123 359.217C302.111 361.182 301.501 362.939 300.294 364.49C299.086 366.041 297.417 367.266 295.287 368.165C293.168 369.053 290.741 369.497 288.007 369.497ZM288.007 363.851C289.226 363.851 290.291 363.632 291.203 363.194C292.114 362.744 292.825 362.129 293.334 361.347C293.854 360.554 294.115 359.643 294.115 358.613C294.115 357.559 293.849 356.63 293.316 355.825C292.783 355.009 292.061 354.369 291.15 353.908C290.238 353.434 289.191 353.197 288.007 353.197C286.835 353.197 285.787 353.434 284.864 353.908C283.941 354.369 283.213 355.009 282.68 355.825C282.159 356.63 281.899 357.559 281.899 358.613C281.899 359.643 282.153 360.554 282.662 361.347C283.171 362.129 283.888 362.744 284.811 363.194C285.734 363.632 286.8 363.851 288.007 363.851ZM288.007 347.604C289.025 347.604 289.93 347.397 290.724 346.983C291.517 346.569 292.138 345.995 292.588 345.261C293.038 344.527 293.263 343.68 293.263 342.722C293.263 341.775 293.038 340.946 292.588 340.236C292.138 339.514 291.523 338.951 290.741 338.549C289.96 338.135 289.049 337.928 288.007 337.928C286.977 337.928 286.066 338.135 285.273 338.549C284.479 338.951 283.858 339.514 283.408 340.236C282.97 340.946 282.751 341.775 282.751 342.722C282.751 343.68 282.976 344.527 283.426 345.261C283.876 345.995 284.497 346.569 285.29 346.983C286.083 347.397 286.989 347.604 288.007 347.604Z" fill="black"/>
<path d="M319.947 369V363.46L332.891 351.475C333.992 350.41 334.915 349.451 335.661 348.599C336.419 347.746 336.993 346.912 337.384 346.095C337.774 345.267 337.969 344.373 337.969 343.414C337.969 342.349 337.727 341.431 337.241 340.662C336.756 339.881 336.093 339.283 335.253 338.869C334.412 338.442 333.46 338.229 332.394 338.229C331.281 338.229 330.311 338.454 329.482 338.904C328.654 339.354 328.014 339.999 327.565 340.839C327.115 341.68 326.89 342.68 326.89 343.84H319.592C319.592 341.461 320.131 339.395 321.208 337.643C322.285 335.892 323.795 334.536 325.736 333.577C327.677 332.619 329.914 332.139 332.447 332.139C335.052 332.139 337.318 332.601 339.248 333.524C341.189 334.436 342.698 335.702 343.776 337.324C344.853 338.946 345.391 340.804 345.391 342.899C345.391 344.272 345.119 345.628 344.575 346.965C344.042 348.303 343.089 349.788 341.716 351.422C340.343 353.044 338.407 354.991 335.91 357.263L330.601 362.466V362.714H345.871V369H319.947ZM364.599 332.139C366.469 332.139 368.268 332.453 369.996 333.08C371.736 333.708 373.287 334.708 374.648 336.081C376.021 337.454 377.104 339.277 377.898 341.55C378.702 343.811 379.111 346.586 379.123 349.877C379.123 352.967 378.773 355.725 378.075 358.151C377.389 360.566 376.4 362.62 375.11 364.312C373.82 366.005 372.263 367.295 370.44 368.183C368.617 369.059 366.581 369.497 364.332 369.497C361.906 369.497 359.763 369.03 357.905 368.094C356.046 367.147 354.549 365.863 353.412 364.241C352.288 362.608 351.607 360.773 351.371 358.737H358.952C359.248 360.063 359.87 361.093 360.817 361.827C361.764 362.549 362.935 362.91 364.332 362.91C366.7 362.91 368.499 361.88 369.73 359.82C370.961 357.749 371.582 354.914 371.594 351.315H371.346C370.801 352.381 370.067 353.298 369.144 354.067C368.221 354.825 367.161 355.411 365.966 355.825C364.782 356.24 363.521 356.447 362.184 356.447C360.041 356.447 358.13 355.944 356.449 354.938C354.768 353.931 353.442 352.546 352.471 350.783C351.501 349.019 351.015 347.007 351.015 344.746C351.004 342.307 351.566 340.135 352.702 338.229C353.839 336.324 355.425 334.832 357.461 333.755C359.509 332.666 361.888 332.127 364.599 332.139ZM364.652 338.176C363.456 338.176 362.391 338.46 361.456 339.028C360.532 339.597 359.799 340.36 359.254 341.319C358.721 342.278 358.461 343.349 358.473 344.533C358.473 345.728 358.733 346.805 359.254 347.764C359.787 348.711 360.509 349.469 361.42 350.037C362.344 350.593 363.397 350.871 364.581 350.871C365.469 350.871 366.291 350.706 367.049 350.374C367.806 350.043 368.463 349.587 369.02 349.007C369.588 348.415 370.032 347.735 370.351 346.965C370.671 346.196 370.831 345.379 370.831 344.515C370.819 343.367 370.547 342.313 370.014 341.354C369.481 340.396 368.747 339.626 367.812 339.046C366.877 338.466 365.824 338.176 364.652 338.176Z" fill="black"/>
<path d="M411.388 369.497C408.737 369.497 406.375 369.041 404.304 368.13C402.244 367.207 400.617 365.94 399.421 364.33C398.237 362.709 397.628 360.838 397.592 358.719H405.334C405.381 359.607 405.671 360.388 406.204 361.063C406.748 361.726 407.47 362.241 408.37 362.608C409.27 362.975 410.282 363.158 411.406 363.158C412.578 363.158 413.614 362.951 414.513 362.537C415.413 362.123 416.117 361.549 416.626 360.815C417.135 360.081 417.39 359.234 417.39 358.276C417.39 357.305 417.118 356.447 416.573 355.701C416.04 354.943 415.271 354.352 414.265 353.925C413.271 353.499 412.087 353.286 410.714 353.286H407.322V347.64H410.714C411.874 347.64 412.898 347.439 413.786 347.036C414.685 346.634 415.384 346.077 415.881 345.367C416.378 344.645 416.626 343.805 416.626 342.846C416.626 341.934 416.407 341.135 415.969 340.449C415.543 339.75 414.94 339.206 414.158 338.815C413.389 338.425 412.489 338.229 411.46 338.229C410.418 338.229 409.465 338.419 408.601 338.798C407.737 339.165 407.044 339.691 406.523 340.378C406.003 341.064 405.724 341.869 405.689 342.793H398.32C398.356 340.697 398.954 338.851 400.114 337.253C401.274 335.655 402.836 334.406 404.801 333.506C406.778 332.595 409.009 332.139 411.495 332.139C414.004 332.139 416.2 332.595 418.082 333.506C419.964 334.418 421.426 335.649 422.468 337.2C423.522 338.738 424.042 340.467 424.031 342.384C424.042 344.42 423.409 346.119 422.131 347.48C420.864 348.841 419.213 349.705 417.177 350.072V350.357C419.852 350.7 421.888 351.629 423.285 353.144C424.693 354.647 425.392 356.53 425.38 358.79C425.392 360.862 424.794 362.703 423.587 364.312C422.391 365.922 420.74 367.189 418.633 368.112C416.526 369.036 414.111 369.497 411.388 369.497ZM445.164 369.799C442.11 369.787 439.482 369.036 437.281 367.544C435.091 366.053 433.404 363.892 432.22 361.063C431.048 358.234 430.468 354.831 430.48 350.854C430.48 346.888 431.066 343.509 432.238 340.715C433.422 337.922 435.109 335.797 437.298 334.341C439.5 332.873 442.122 332.139 445.164 332.139C448.206 332.139 450.822 332.873 453.012 334.341C455.214 335.809 456.907 337.939 458.09 340.733C459.274 343.515 459.86 346.888 459.848 350.854C459.848 354.843 459.256 358.252 458.073 361.081C456.901 363.91 455.22 366.07 453.03 367.562C450.84 369.053 448.218 369.799 445.164 369.799ZM445.164 363.425C447.248 363.425 448.911 362.377 450.154 360.282C451.396 358.187 452.012 355.044 452 350.854C452 348.096 451.716 345.799 451.148 343.964C450.592 342.13 449.798 340.751 448.769 339.827C447.751 338.904 446.549 338.442 445.164 338.442C443.093 338.442 441.436 339.478 440.193 341.55C438.95 343.621 438.322 346.723 438.311 350.854C438.311 353.647 438.589 355.979 439.145 357.849C439.713 359.708 440.512 361.105 441.542 362.04C442.572 362.963 443.779 363.425 445.164 363.425Z" fill="black"/>
<rect x="0.5" y="390.5" width="77" height="77" fill="white" stroke="black"/>
<rect x="78.5" y="390.5" width="77" height="77" fill="white" stroke="black"/>
<rect x="156.5" y="390.5" width="77" height="77" fill="white" stroke="black"/>
<rect x="234.5" y="390.5" width="77" height="77" fill="white" stroke="black"/>
<rect x="312.5" y="390.5" width="77" height="77" fill="white" stroke="black"/>
<rect x="390.5" y="390.5" width="77" height="77" fill="white" stroke="black"/>
<path d="M25.3885 447.497C22.737 447.497 20.3755 447.041 18.304 446.13C16.2443 445.207 14.6167 443.94 13.4212 442.33C12.2375 440.709 11.6278 438.838 11.5923 436.719H19.3338C19.3812 437.607 19.6712 438.388 20.2038 439.063C20.7483 439.726 21.4704 440.241 22.37 440.608C23.2696 440.975 24.2817 441.158 25.4062 441.158C26.5781 441.158 27.6139 440.951 28.5135 440.537C29.4131 440.123 30.1174 439.549 30.6264 438.815C31.1354 438.081 31.3899 437.234 31.3899 436.276C31.3899 435.305 31.1177 434.447 30.5732 433.701C30.0405 432.943 29.2711 432.352 28.2649 431.925C27.2706 431.499 26.0869 431.286 24.7138 431.286H21.3224V425.64H24.7138C25.8738 425.64 26.8977 425.439 27.7855 425.036C28.6851 424.634 29.3835 424.077 29.8807 423.367C30.3778 422.645 30.6264 421.805 30.6264 420.846C30.6264 419.934 30.4074 419.135 29.9695 418.449C29.5433 417.75 28.9396 417.206 28.1584 416.815C27.389 416.425 26.4893 416.229 25.4595 416.229C24.4179 416.229 23.465 416.419 22.6009 416.798C21.7367 417.165 21.0443 417.691 20.5234 418.378C20.0026 419.064 19.7244 419.869 19.6889 420.793H12.3203C12.3558 418.697 12.9536 416.851 14.1136 415.253C15.2737 413.655 16.8362 412.406 18.8011 411.506C20.7779 410.595 23.0092 410.139 25.495 410.139C28.0045 410.139 30.2003 410.595 32.0824 411.506C33.9645 412.418 35.4264 413.649 36.468 415.2C37.5215 416.738 38.0424 418.467 38.0305 420.384C38.0424 422.42 37.4091 424.119 36.1307 425.48C34.8641 426.841 33.2128 427.705 31.1768 428.072V428.357C33.852 428.7 35.888 429.629 37.2848 431.144C38.6934 432.647 39.3918 434.53 39.38 436.79C39.3918 438.862 38.794 440.703 37.5866 442.312C36.3911 443.922 34.7398 445.189 32.6328 446.112C30.5258 447.036 28.111 447.497 25.3885 447.497ZM60.7267 410.636V447H53.0385V417.934H52.8255L44.498 423.154V416.336L53.5002 410.636H60.7267Z" fill="black"/>
<path d="M99.3885 447.497C96.737 447.497 94.3755 447.041 92.304 446.13C90.2443 445.207 88.6167 443.94 87.4212 442.33C86.2375 440.709 85.6278 438.838 85.5923 436.719H93.3338C93.3812 437.607 93.6712 438.388 94.2038 439.063C94.7483 439.726 95.4704 440.241 96.37 440.608C97.2696 440.975 98.2817 441.158 99.4062 441.158C100.578 441.158 101.614 440.951 102.513 440.537C103.413 440.123 104.117 439.549 104.626 438.815C105.135 438.081 105.39 437.234 105.39 436.276C105.39 435.305 105.118 434.447 104.573 433.701C104.04 432.943 103.271 432.352 102.265 431.925C101.271 431.499 100.087 431.286 98.7138 431.286H95.3224V425.64H98.7138C99.8738 425.64 100.898 425.439 101.786 425.036C102.685 424.634 103.384 424.077 103.881 423.367C104.378 422.645 104.626 421.805 104.626 420.846C104.626 419.934 104.407 419.135 103.969 418.449C103.543 417.75 102.94 417.206 102.158 416.815C101.389 416.425 100.489 416.229 99.4595 416.229C98.4179 416.229 97.465 416.419 96.6009 416.798C95.7367 417.165 95.0443 417.691 94.5234 418.378C94.0026 419.064 93.7244 419.869 93.6889 420.793H86.3203C86.3558 418.697 86.9536 416.851 88.1136 415.253C89.2737 413.655 90.8362 412.406 92.8011 411.506C94.7779 410.595 97.0092 410.139 99.495 410.139C102.004 410.139 104.2 410.595 106.082 411.506C107.964 412.418 109.426 413.649 110.468 415.2C111.522 416.738 112.042 418.467 112.031 420.384C112.042 422.42 111.409 424.119 110.131 425.48C108.864 426.841 107.213 427.705 105.177 428.072V428.357C107.852 428.7 109.888 429.629 111.285 431.144C112.693 432.647 113.392 434.53 113.38 436.79C113.392 438.862 112.794 440.703 111.587 442.312C110.391 443.922 108.74 445.189 106.633 446.112C104.526 447.036 102.111 447.497 99.3885 447.497ZM118.906 447V441.46L131.85 429.475C132.951 428.41 133.874 427.451 134.62 426.599C135.378 425.746 135.952 424.912 136.343 424.095C136.733 423.267 136.928 422.373 136.928 421.414C136.928 420.349 136.686 419.431 136.2 418.662C135.715 417.881 135.052 417.283 134.212 416.869C133.371 416.442 132.419 416.229 131.353 416.229C130.24 416.229 129.27 416.454 128.441 416.904C127.613 417.354 126.973 417.999 126.524 418.839C126.074 419.68 125.849 420.68 125.849 421.84H118.551C118.551 419.461 119.09 417.395 120.167 415.643C121.244 413.892 122.753 412.536 124.695 411.577C126.636 410.619 128.873 410.139 131.406 410.139C134.011 410.139 136.277 410.601 138.207 411.524C140.148 412.436 141.657 413.702 142.735 415.324C143.812 416.946 144.35 418.804 144.35 420.899C144.35 422.272 144.078 423.628 143.534 424.965C143.001 426.303 142.048 427.788 140.675 429.422C139.302 431.044 137.366 432.991 134.869 435.263L129.56 440.466V440.714H144.83V447H118.906Z" fill="black"/>
<path d="M177.388 447.497C174.737 447.497 172.375 447.041 170.304 446.13C168.244 445.207 166.617 443.94 165.421 442.33C164.237 440.709 163.628 438.838 163.592 436.719H171.334C171.381 437.607 171.671 438.388 172.204 439.063C172.748 439.726 173.47 440.241 174.37 440.608C175.27 440.975 176.282 441.158 177.406 441.158C178.578 441.158 179.614 440.951 180.513 440.537C181.413 440.123 182.117 439.549 182.626 438.815C183.135 438.081 183.39 437.234 183.39 436.276C183.39 435.305 183.118 434.447 182.573 433.701C182.04 432.943 181.271 432.352 180.265 431.925C179.271 431.499 178.087 431.286 176.714 431.286H173.322V425.64H176.714C177.874 425.64 178.898 425.439 179.786 425.036C180.685 424.634 181.384 424.077 181.881 423.367C182.378 422.645 182.626 421.805 182.626 420.846C182.626 419.934 182.407 419.135 181.969 418.449C181.543 417.75 180.94 417.206 180.158 416.815C179.389 416.425 178.489 416.229 177.46 416.229C176.418 416.229 175.465 416.419 174.601 416.798C173.737 417.165 173.044 417.691 172.523 418.378C172.003 419.064 171.724 419.869 171.689 420.793H164.32C164.356 418.697 164.954 416.851 166.114 415.253C167.274 413.655 168.836 412.406 170.801 411.506C172.778 410.595 175.009 410.139 177.495 410.139C180.004 410.139 182.2 410.595 184.082 411.506C185.964 412.418 187.426 413.649 188.468 415.2C189.522 416.738 190.042 418.467 190.031 420.384C190.042 422.42 189.409 424.119 188.131 425.48C186.864 426.841 185.213 427.705 183.177 428.072V428.357C185.852 428.7 187.888 429.629 189.285 431.144C190.693 432.647 191.392 434.53 191.38 436.79C191.392 438.862 190.794 440.703 189.587 442.312C188.391 443.922 186.74 445.189 184.633 446.112C182.526 447.036 180.111 447.497 177.388 447.497ZM210.347 447.497C207.696 447.497 205.334 447.041 203.263 446.13C201.203 445.207 199.576 443.94 198.38 442.33C197.196 440.709 196.587 438.838 196.551 436.719H204.293C204.34 437.607 204.63 438.388 205.163 439.063C205.707 439.726 206.429 440.241 207.329 440.608C208.229 440.975 209.241 441.158 210.365 441.158C211.537 441.158 212.573 440.951 213.472 440.537C214.372 440.123 215.076 439.549 215.585 438.815C216.094 438.081 216.349 437.234 216.349 436.276C216.349 435.305 216.077 434.447 215.532 433.701C214.999 432.943 214.23 432.352 213.224 431.925C212.23 431.499 211.046 431.286 209.673 431.286H206.281V425.64H209.673C210.833 425.64 211.857 425.439 212.744 425.036C213.644 424.634 214.343 424.077 214.84 423.367C215.337 422.645 215.585 421.805 215.585 420.846C215.585 419.934 215.366 419.135 214.928 418.449C214.502 417.75 213.899 417.206 213.117 416.815C212.348 416.425 211.448 416.229 210.419 416.229C209.377 416.229 208.424 416.419 207.56 416.798C206.696 417.165 206.003 417.691 205.482 418.378C204.962 419.064 204.683 419.869 204.648 420.793H197.279C197.315 418.697 197.913 416.851 199.073 415.253C200.233 413.655 201.795 412.406 203.76 411.506C205.737 410.595 207.968 410.139 210.454 410.139C212.963 410.139 215.159 410.595 217.041 411.506C218.923 412.418 220.385 413.649 221.427 415.2C222.481 416.738 223.001 418.467 222.99 420.384C223.001 422.42 222.368 424.119 221.09 425.48C219.823 426.841 218.172 427.705 216.136 428.072V428.357C218.811 428.7 220.847 429.629 222.244 431.144C223.652 432.647 224.351 434.53 224.339 436.79C224.351 438.862 223.753 440.703 222.546 442.312C221.35 443.922 219.699 445.189 217.592 446.112C215.485 447.036 213.07 447.497 210.347 447.497Z" fill="black"/>
<path d="M256.388 447.497C253.737 447.497 251.375 447.041 249.304 446.13C247.244 445.207 245.617 443.94 244.421 442.33C243.237 440.709 242.628 438.838 242.592 436.719H250.334C250.381 437.607 250.671 438.388 251.204 439.063C251.748 439.726 252.47 440.241 253.37 440.608C254.27 440.975 255.282 441.158 256.406 441.158C257.578 441.158 258.614 440.951 259.513 440.537C260.413 440.123 261.117 439.549 261.626 438.815C262.135 438.081 262.39 437.234 262.39 436.276C262.39 435.305 262.118 434.447 261.573 433.701C261.04 432.943 260.271 432.352 259.265 431.925C258.271 431.499 257.087 431.286 255.714 431.286H252.322V425.64H255.714C256.874 425.64 257.898 425.439 258.786 425.036C259.685 424.634 260.384 424.077 260.881 423.367C261.378 422.645 261.626 421.805 261.626 420.846C261.626 419.934 261.407 419.135 260.969 418.449C260.543 417.75 259.94 417.206 259.158 416.815C258.389 416.425 257.489 416.229 256.46 416.229C255.418 416.229 254.465 416.419 253.601 416.798C252.737 417.165 252.044 417.691 251.523 418.378C251.003 419.064 250.724 419.869 250.689 420.793H243.32C243.356 418.697 243.954 416.851 245.114 415.253C246.274 413.655 247.836 412.406 249.801 411.506C251.778 410.595 254.009 410.139 256.495 410.139C259.004 410.139 261.2 410.595 263.082 411.506C264.964 412.418 266.426 413.649 267.468 415.2C268.522 416.738 269.042 418.467 269.031 420.384C269.042 422.42 268.409 424.119 267.131 425.48C265.864 426.841 264.213 427.705 262.177 428.072V428.357C264.852 428.7 266.888 429.629 268.285 431.144C269.693 432.647 270.392 434.53 270.38 436.79C270.392 438.862 269.794 440.703 268.587 442.312C267.391 443.922 265.74 445.189 263.633 446.112C261.526 447.036 259.111 447.497 256.388 447.497ZM275.356 440.608V434.553L290.537 410.636H295.757V419.017H292.668L283.097 434.163V434.447H304.671V440.608H275.356ZM292.81 447V438.761L292.952 436.08V410.636H300.161V447H292.81Z" fill="black"/>
<path d="M334.388 447.497C331.737 447.497 329.375 447.041 327.304 446.13C325.244 445.207 323.617 443.94 322.421 442.33C321.237 440.709 320.628 438.838 320.592 436.719H328.334C328.381 437.607 328.671 438.388 329.204 439.063C329.748 439.726 330.47 440.241 331.37 440.608C332.27 440.975 333.282 441.158 334.406 441.158C335.578 441.158 336.614 440.951 337.513 440.537C338.413 440.123 339.117 439.549 339.626 438.815C340.135 438.081 340.39 437.234 340.39 436.276C340.39 435.305 340.118 434.447 339.573 433.701C339.04 432.943 338.271 432.352 337.265 431.925C336.271 431.499 335.087 431.286 333.714 431.286H330.322V425.64H333.714C334.874 425.64 335.898 425.439 336.786 425.036C337.685 424.634 338.384 424.077 338.881 423.367C339.378 422.645 339.626 421.805 339.626 420.846C339.626 419.934 339.407 419.135 338.969 418.449C338.543 417.75 337.94 417.206 337.158 416.815C336.389 416.425 335.489 416.229 334.46 416.229C333.418 416.229 332.465 416.419 331.601 416.798C330.737 417.165 330.044 417.691 329.523 418.378C329.003 419.064 328.724 419.869 328.689 420.793H321.32C321.356 418.697 321.954 416.851 323.114 415.253C324.274 413.655 325.836 412.406 327.801 411.506C329.778 410.595 332.009 410.139 334.495 410.139C337.004 410.139 339.2 410.595 341.082 411.506C342.964 412.418 344.426 413.649 345.468 415.2C346.522 416.738 347.042 418.467 347.031 420.384C347.042 422.42 346.409 424.119 345.131 425.48C343.864 426.841 342.213 427.705 340.177 428.072V428.357C342.852 428.7 344.888 429.629 346.285 431.144C347.693 432.647 348.392 434.53 348.38 436.79C348.392 438.862 347.794 440.703 346.587 442.312C345.391 443.922 343.74 445.189 341.633 446.112C339.526 447.036 337.111 447.497 334.388 447.497ZM367.188 447.497C364.678 447.497 362.441 447.036 360.476 446.112C358.523 445.189 356.972 443.916 355.824 442.295C354.676 440.673 354.078 438.815 354.031 436.719H361.488C361.571 438.128 362.163 439.27 363.264 440.146C364.365 441.022 365.673 441.46 367.188 441.46C368.395 441.46 369.46 441.194 370.384 440.661C371.319 440.117 372.047 439.365 372.568 438.406C373.1 437.436 373.367 436.323 373.367 435.068C373.367 433.79 373.094 432.665 372.55 431.695C372.017 430.724 371.277 429.966 370.33 429.422C369.383 428.877 368.3 428.599 367.081 428.587C366.016 428.587 364.98 428.806 363.974 429.244C362.98 429.682 362.204 430.28 361.648 431.038L354.812 429.812L356.534 410.636H378.764V416.922H362.873L361.932 426.031H362.145C362.784 425.131 363.749 424.385 365.039 423.793C366.329 423.201 367.774 422.906 369.372 422.906C371.561 422.906 373.515 423.42 375.231 424.45C376.947 425.48 378.303 426.895 379.297 428.694C380.291 430.481 380.783 432.541 380.771 434.873C380.783 437.323 380.214 439.501 379.066 441.407C377.93 443.301 376.338 444.792 374.29 445.881C372.254 446.959 369.887 447.497 367.188 447.497Z" fill="black"/>
</g>
<defs>
<clipPath id="clip0_242_276">
<rect width="468" height="468" fill="white"/>
</clipPath>
</defs>
</svg>
