<svg width="367" height="130" viewBox="0 0 367 130" fill="none" xmlns="http://www.w3.org/2000/svg">
<circle cx="65" cy="65" r="65" fill="#D9D9D9"/>
<path d="M32.5765 46.6364H40.247V69.5057H40.5488L56.2626 46.6364H62.992V83H55.3038V60.1129H55.0375L39.2349 83H32.5765V46.6364ZM91.3434 83L79.6602 67.4993H77.0323V83H69.3441V46.6364H77.0323V61.1605H78.5771L90.6509 46.6364H100.221L86.0344 63.5043L100.878 83H91.3434Z" fill="black"/>
<line x1="150.5" y1="7" x2="150.5" y2="122" stroke="black"/>
<path d="M182.751 46.6364V83H181.615V47.8438H181.402L173.589 53.0284V51.679L181.189 46.6364H182.751ZM204.178 83.4972C202.296 83.4972 200.633 83.0888 199.188 82.272C197.744 81.4553 196.614 80.3248 195.797 78.8807C194.98 77.4366 194.578 75.7794 194.59 73.9091H195.726C195.714 76.3949 196.484 78.425 198.034 79.9993C199.597 81.5736 201.645 82.3608 204.178 82.3608C206.084 82.3608 207.764 81.8932 209.22 80.9581C210.676 80.023 211.813 78.7505 212.63 77.1406C213.446 75.5308 213.849 73.7197 213.837 71.7074C213.825 69.553 213.369 67.6887 212.47 66.1143C211.582 64.54 210.398 63.3267 208.919 62.4744C207.451 61.6222 205.847 61.196 204.107 61.196C202.675 61.196 201.378 61.4683 200.218 62.0128C199.058 62.5573 198.058 63.2557 197.218 64.108L195.513 63.8239L197.644 46.6364H213.766V47.7727H198.638L196.791 62.8295H196.934C197.845 61.9891 198.904 61.3203 200.112 60.8232C201.319 60.3142 202.651 60.0597 204.107 60.0597C206.06 60.0597 207.859 60.545 209.505 61.5156C211.162 62.4744 212.487 63.8298 213.482 65.5817C214.488 67.3217 214.985 69.3636 214.973 71.7074C214.961 73.9564 214.494 75.9687 213.571 77.7443C212.647 79.5199 211.375 80.9226 209.753 81.9524C208.131 82.9822 206.273 83.4972 204.178 83.4972ZM223.793 93.2273V55.7273H224.93V62.6875H225.072C225.569 61.1723 226.261 59.8643 227.149 58.7635C228.037 57.6626 229.085 56.8104 230.292 56.2067C231.511 55.603 232.849 55.3011 234.305 55.3011C236.459 55.3011 238.318 55.9226 239.88 57.1655C241.454 58.3965 242.668 60.0774 243.52 62.2081C244.384 64.3388 244.816 66.7476 244.816 69.4347C244.816 72.1098 244.384 74.5128 243.52 76.6435C242.656 78.7741 241.437 80.4609 239.862 81.7038C238.288 82.9467 236.435 83.5682 234.305 83.5682C232.861 83.5682 231.529 83.2723 230.31 82.6804C229.091 82.0767 228.031 81.2244 227.131 80.1236C226.232 79.0109 225.545 77.697 225.072 76.1818H224.93V93.2273H223.793ZM224.93 69.4347C224.93 71.8968 225.309 74.1103 226.066 76.0753C226.836 78.0284 227.919 79.5791 229.315 80.7273C230.724 81.8636 232.387 82.4318 234.305 82.4318C236.222 82.4318 237.88 81.8636 239.276 80.7273C240.685 79.5791 241.768 78.0284 242.526 76.0753C243.295 74.1103 243.68 71.8968 243.68 69.4347C243.68 66.9725 243.301 64.7649 242.543 62.8118C241.786 60.8468 240.703 59.2962 239.294 58.1598C237.897 57.0116 236.234 56.4375 234.305 56.4375C232.375 56.4375 230.706 57.0116 229.298 58.1598C227.901 59.2962 226.824 60.8468 226.066 62.8118C225.309 64.7649 224.93 66.9725 224.93 69.4347ZM270.46 74.0511V55.7273H271.596V83H270.46V78.6676H270.318C269.679 80.0881 268.625 81.2244 267.157 82.0767C265.701 82.929 264.032 83.3551 262.15 83.3551C260.327 83.3551 258.717 82.9586 257.321 82.1655C255.924 81.3724 254.829 80.2775 254.036 78.8807C253.243 77.4839 252.846 75.8741 252.846 74.0511V55.7273H253.983V74.0511C253.983 76.4659 254.74 78.4309 256.255 79.946C257.77 81.4612 259.735 82.2188 262.15 82.2188C263.76 82.2188 265.186 81.8696 266.429 81.1712C267.684 80.4728 268.666 79.508 269.377 78.277C270.099 77.0459 270.46 75.6373 270.46 74.0511ZM280.27 83V81.8636L296.605 57.0057V56.8636H281.335V55.7273H298.025V56.8636L281.69 81.7216V81.8636H298.736V83H280.27ZM305.709 83V81.8636L322.044 57.0057V56.8636H306.775V55.7273H323.465V56.8636L307.13 81.7216V81.8636H324.175V83H305.709ZM333.279 46.6364V83H332.143V46.6364H333.279ZM353.161 83.5682C350.782 83.5682 348.699 82.9467 346.911 81.7038C345.136 80.4609 343.757 78.7741 342.774 76.6435C341.792 74.5128 341.301 72.1098 341.301 69.4347C341.301 66.7595 341.792 64.3565 342.774 62.2259C343.769 60.0952 345.118 58.4084 346.823 57.1655C348.527 55.9226 350.451 55.3011 352.593 55.3011C354.179 55.3011 355.647 55.6385 356.997 56.3132C358.358 56.9879 359.542 57.9231 360.548 59.1186C361.554 60.3142 362.335 61.6932 362.891 63.2557C363.46 64.8063 363.744 66.4635 363.744 68.2273V69.3636H341.869V68.2273H362.607C362.607 66.0374 362.158 64.0547 361.258 62.2791C360.358 60.4917 359.151 59.0713 357.636 58.0178C356.121 56.9643 354.44 56.4375 352.593 56.4375C350.723 56.4375 349.03 56.9938 347.515 58.1065C346 59.2192 344.787 60.7344 343.875 62.652C342.964 64.5696 342.484 66.7358 342.437 69.1506V69.2926C342.437 71.6719 342.851 73.8617 343.68 75.8622C344.52 77.8509 345.739 79.4429 347.337 80.6385C348.935 81.834 350.877 82.4318 353.161 82.4318C354.842 82.4318 356.251 82.1359 357.387 81.544C358.535 80.9522 359.453 80.2715 360.139 79.5021C360.838 78.7327 361.353 78.0758 361.684 77.5312L362.607 78.1705C362.205 78.857 361.601 79.6205 360.796 80.4609C359.991 81.3014 358.961 82.0294 357.707 82.6449C356.452 83.2604 354.937 83.5682 353.161 83.5682Z" fill="black"/>
</svg>
